<?xml version="1.0" encoding="UTF-8" standalone="no"?>
<!-- Created with Inkscape (http://www.inkscape.org/) -->

<svg
   xmlns:dc="http://purl.org/dc/elements/1.1/"
   xmlns:cc="http://creativecommons.org/ns#"
   xmlns:rdf="http://www.w3.org/1999/02/22-rdf-syntax-ns#"
   xmlns:svg="http://www.w3.org/2000/svg"
   xmlns="http://www.w3.org/2000/svg"
   xmlns:sodipodi="http://sodipodi.sourceforge.net/DTD/sodipodi-0.dtd"
   xmlns:inkscape="http://www.inkscape.org/namespaces/inkscape"
   width="210mm"
   height="297mm"
   viewBox="0 0 744.09448819 1052.3622047"
   id="svg2"
   version="1.1"
   inkscape:version="0.91 r13725"
   sodipodi:docname="composite.svg">
  <defs
     id="defs4" />
  <sodipodi:namedview
     id="base"
     pagecolor="#ffffff"
     bordercolor="#666666"
     borderopacity="1.0"
     inkscape:pageopacity="0.0"
     inkscape:pageshadow="2"
     inkscape:zoom="0.52548447"
     inkscape:cx="372.04724"
     inkscape:cy="526.1811"
     inkscape:document-units="px"
     inkscape:current-layer="layer1"
     showgrid="false"
     inkscape:snap-bbox="true"
     inkscape:bbox-paths="true"
     inkscape:bbox-nodes="true"
     inkscape:snap-bbox-edge-midpoints="true"
     inkscape:snap-bbox-midpoints="true"
     inkscape:object-paths="true"
     inkscape:snap-intersection-paths="true"
     inkscape:object-nodes="true"
     inkscape:snap-smooth-nodes="true"
     inkscape:snap-midpoints="true"
     inkscape:snap-object-midpoints="true"
     inkscape:snap-center="true"
     inkscape:snap-text-baseline="true"
     inkscape:snap-page="true"
     inkscape:window-width="1366"
     inkscape:window-height="705"
     inkscape:window-x="-8"
     inkscape:window-y="-8"
     inkscape:window-maximized="1"
     inkscape:snap-global="true" />
  <metadata
     id="metadata7">
    <rdf:RDF>
      <cc:Work
         rdf:about="">
        <dc:format>image/svg+xml</dc:format>
        <dc:type
           rdf:resource="http://purl.org/dc/dcmitype/StillImage" />
        <dc:title />
      </cc:Work>
    </rdf:RDF>
  </metadata>
  <g
     inkscape:label="Layer 1"
     inkscape:groupmode="layer"
     id="layer1">
    <path
       style="opacity:1;fill:#ffffff;fill-opacity:1;stroke:#000000;stroke-width:10;stroke-linecap:butt;stroke-linejoin:miter;stroke-miterlimit:4;stroke-dasharray:none;stroke-dashoffset:0;stroke-opacity:1"
       d="m 592.04724,526.18109 a 220,220 0 0 1 -219.97312,220 A 220,220 0 0 1 152.04725,526.23485 220,220 0 0 1 371.9666,306.18111 220,220 0 0 1 592.04721,526.07358"
       id="path4167" />
    <path
       style="opacity:1;fill:#ffffff;fill-opacity:1;stroke:#000000;stroke-width:10;stroke-linecap:butt;stroke-linejoin:miter;stroke-miterlimit:4;stroke-dasharray:10,10;stroke-dashoffset:0;stroke-opacity:1"
       d="m 372.04724,263.09055 0,526.18106"
       id="path4146"
       inkscape:connector-curvature="0" />
    <path
       style="opacity:1;fill:#ffffff;fill-opacity:1;stroke:#000000;stroke-width:10;stroke-linecap:butt;stroke-linejoin:miter;stroke-miterlimit:4;stroke-dasharray:none;stroke-dashoffset:0;stroke-opacity:1"
       d="M 306.0236,526.18103 A 119.99998,119.99998 0 0 1 186.03828,646.18101 119.99998,119.99998 0 0 1 66.023647,526.21035 119.99998,119.99998 0 0 1 185.97964,406.18106 119.99998,119.99998 0 0 1 306.02358,526.12239"
       id="path4148" />
    <path
       style="opacity:1;fill:#ffffff;fill-opacity:1;stroke:#000000;stroke-width:10;stroke-linecap:butt;stroke-linejoin:miter;stroke-miterlimit:4;stroke-dasharray:none;stroke-dashoffset:0;stroke-opacity:1"
       d="M 678.07084,526.18109 A 119.99998,119.99998 0 0 1 558.08552,646.18107 119.99998,119.99998 0 0 1 438.07089,526.21041 119.99998,119.99998 0 0 1 558.02688,406.18112 119.99998,119.99998 0 0 1 678.07082,526.12245"
       id="path4148-5" />
    <g
       style="font-style:italic;font-variant:normal;font-weight:normal;font-stretch:normal;font-size:60px;line-height:100%;font-family:'Times New Roman';-inkscape-font-specification:'Times New Roman, Italic';text-align:center;letter-spacing:0px;word-spacing:0px;writing-mode:lr-tb;text-anchor:middle;fill:#000000;fill-opacity:1;stroke:none;stroke-width:1px;stroke-linecap:butt;stroke-linejoin:miter;stroke-opacity:1"
       id="text3378">
      <path
         d="m 340.7645,333.90421 -3.01758,33.04687 q -0.23438,2.31445 -0.23438,3.04688 0,1.17187 0.43946,1.7871 0.55664,0.84961 1.49414,1.25977 0.96679,0.41016 3.22265,0.41016 l -0.32226,1.08398 -15.64453,0 0.32226,-1.08398 0.67383,0 q 1.9043,0 3.10547,-0.82032 0.84961,-0.55664 1.31836,-1.8457 0.32226,-0.9082 0.61523,-4.27734 l 0.46875,-5.03907 -11.36719,0 -4.04296,5.47852 q -1.37696,1.8457 -1.72852,2.66602 -0.35156,0.79101 -0.35156,1.49414 0,0.9375 0.76172,1.61132 0.76172,0.67383 2.51953,0.73243 l -0.32227,1.08398 -11.74804,0 0.32226,-1.08398 q 2.16797,-0.0879 3.80859,-1.43555 1.66993,-1.37695 4.95118,-5.83008 l 23.73047,-32.28515 1.02539,0 z m -5.80079,9.75585 -11.51367,15.67383 9.99024,0 1.52343,-15.67383 z"
         style=""
         id="path3434" />
    </g>
    <g
       style="font-style:italic;font-variant:normal;font-weight:normal;font-stretch:normal;font-size:60px;line-height:100%;font-family:'Times New Roman';-inkscape-font-specification:'Times New Roman, Italic';text-align:center;letter-spacing:0px;word-spacing:0px;writing-mode:lr-tb;text-anchor:middle;fill:#000000;fill-opacity:1;stroke:none;stroke-width:1px;stroke-linecap:butt;stroke-linejoin:miter;stroke-opacity:1"
       id="text3378-0">
      <path
         d="m 324.96158,683.9809 0.41015,-1.08399 14.17969,0 q 3.57422,0 6.35742,1.11328 2.8125,1.11328 4.18946,3.10547 1.40625,1.99219 1.40625,4.21875 0,3.42774 -2.49024,6.21094 -2.46093,2.75391 -8.05664,4.07226 3.60352,1.34766 5.30274,3.57422 1.69922,2.22657 1.69922,4.89258 0,2.95899 -1.52344,5.6543 -1.52344,2.69531 -3.92578,4.18945 -2.37305,1.49414 -5.74219,2.19727 -2.40234,0.49804 -7.5,0.49804 l -14.56055,0 0.38086,-1.08398 q 2.28516,-0.0586 3.10547,-0.43945 1.17188,-0.49805 1.66992,-1.31836 0.70313,-1.11328 1.875,-5.09766 l 7.11914,-24.05273 q 0.90821,-3.04688 0.90821,-4.27735 0,-1.08398 -0.82032,-1.69922 -0.79101,-0.64453 -3.04687,-0.64453 -0.49805,0 -0.9375,-0.0293 z m 5.94726,16.49414 q 1.9043,0.0586 2.75391,0.0586 6.09375,0 9.05273,-2.63672 2.98829,-2.66601 2.98829,-6.65039 0,-3.01758 -1.81641,-4.6875 -1.81641,-1.69922 -5.80078,-1.69922 -1.05469,0 -2.69531,0.35156 l -4.48243,15.26368 z m -5.77148,19.57031 q 3.16406,0.41016 4.95117,0.41016 4.57031,0 8.08594,-2.75391 3.54492,-2.75391 3.54492,-7.4707 0,-3.60352 -2.19726,-5.625 -2.16797,-2.02149 -7.03125,-2.02149 -0.9375,0 -2.28516,0.0879 l -5.06836,17.37305 z"
         style=""
         id="path3437" />
    </g>
    <g
       style="font-style:italic;font-variant:normal;font-weight:normal;font-stretch:normal;font-size:60px;line-height:100%;font-family:'Times New Roman';-inkscape-font-specification:'Times New Roman, Italic';text-align:center;letter-spacing:0px;word-spacing:0px;writing-mode:lr-tb;text-anchor:middle;fill:#000000;fill-opacity:1;stroke:none;stroke-width:1px;stroke-linecap:butt;stroke-linejoin:miter;stroke-opacity:1"
       id="text3378-3">
      <path
         d="m 421.98877,333.02283 -3.01758,33.04687 q -0.23437,2.31446 -0.23437,3.04688 0,1.17187 0.43945,1.78711 0.55664,0.84961 1.49414,1.25976 0.9668,0.41016 3.22266,0.41016 l -0.32227,1.08398 -15.64453,0 0.32227,-1.08398 0.67382,0 q 1.9043,0 3.10547,-0.82031 0.84961,-0.55664 1.31836,-1.84571 0.32227,-0.9082 0.61524,-4.27734 l 0.46875,-5.03906 -11.36719,0 -4.04297,5.47851 q -1.37695,1.84571 -1.72852,2.66602 -0.35156,0.79101 -0.35156,1.49414 0,0.9375 0.76172,1.61133 0.76172,0.67382 2.51953,0.73242 l -0.32226,1.08398 -11.74805,0 0.32226,-1.08398 q 2.16797,-0.0879 3.8086,-1.43555 1.66992,-1.37695 4.95117,-5.83008 l 23.73047,-32.28515 1.02539,0 z m -5.80078,9.75586 -11.51367,15.67382 9.99023,0 1.52344,-15.67382 z"
         style=""
         id="path3440" />
      <path
         d="m 435.64111,350.1322 0.90821,-8.67187 q 0.38086,-3.69141 0.76172,-4.98047 0.55664,-1.8457 1.55273,-2.63672 1.02539,-0.82031 2.28516,-0.82031 1.05468,0 1.66992,0.58593 0.61523,0.58594 0.61523,1.49415 0,0.67382 -0.29297,1.49414 -0.38086,1.11328 -2.16797,4.89257 l -4.04296,8.64258 -1.28907,0 z"
         style=""
         id="path3442" />
    </g>
    <g
       style="font-style:italic;font-variant:normal;font-weight:normal;font-stretch:normal;font-size:60px;line-height:100%;font-family:'Times New Roman';-inkscape-font-specification:'Times New Roman, Italic';text-align:center;letter-spacing:0px;word-spacing:0px;writing-mode:lr-tb;text-anchor:middle;fill:#000000;fill-opacity:1;stroke:none;stroke-width:1px;stroke-linecap:butt;stroke-linejoin:miter;stroke-opacity:1"
       id="text3378-1">
      <path
         d="m 402.2485,684.85388 0.41016,-1.08398 14.17969,0 q 3.57422,0 6.35742,1.11328 2.8125,1.11328 4.18945,3.10547 1.40625,1.99218 1.40625,4.21875 0,3.42773 -2.49023,6.21093 -2.46094,2.75391 -8.05664,4.07227 3.60351,1.34766 5.30273,3.57422 1.69922,2.22656 1.69922,4.89258 0,2.95898 -1.52344,5.65429 -1.52343,2.69532 -3.92578,4.18946 -2.37304,1.49414 -5.74218,2.19726 -2.40235,0.49805 -7.5,0.49805 l -14.56055,0 0.38086,-1.08398 q 2.28515,-0.0586 3.10547,-0.43946 1.17187,-0.49804 1.66992,-1.31836 0.70312,-1.11328 1.875,-5.09765 l 7.11914,-24.05274 q 0.9082,-3.04687 0.9082,-4.27734 0,-1.08399 -0.82031,-1.69922 -0.79102,-0.64453 -3.04688,-0.64453 -0.49804,0 -0.9375,-0.0293 z m 5.94727,16.49414 q 1.9043,0.0586 2.75391,0.0586 6.09375,0 9.05273,-2.63672 2.98828,-2.66602 2.98828,-6.65039 0,-3.01758 -1.8164,-4.6875 -1.81641,-1.69922 -5.80079,-1.69922 -1.05468,0 -2.69531,0.35156 l -4.48242,15.26367 z m -5.77148,19.57031 q 3.16406,0.41016 4.95117,0.41016 4.57031,0 8.08594,-2.75391 3.54492,-2.7539 3.54492,-7.4707 0,-3.60351 -2.19727,-5.625 -2.16797,-2.02148 -7.03125,-2.02148 -0.9375,0 -2.28515,0.0879 l -5.06836,17.37304 z"
         style=""
         id="path3445" />
      <path
         d="m 437.9321,699.97107 0.9082,-8.67188 q 0.38086,-3.6914 0.76172,-4.98046 0.55664,-1.84571 1.55273,-2.63672 1.0254,-0.82032 2.28516,-0.82032 1.05469,0 1.66992,0.58594 0.61524,0.58594 0.61524,1.49414 0,0.67383 -0.29297,1.49414 -0.38086,1.11328 -2.16797,4.89258 l -4.04297,8.64258 -1.28906,0 z"
         style=""
         id="path3447" />
    </g>
    <g
       style="font-style:italic;font-variant:normal;font-weight:normal;font-stretch:normal;font-size:80px;line-height:100%;font-family:'Times New Roman';-inkscape-font-specification:'Times New Roman, Italic';text-align:center;letter-spacing:0px;word-spacing:0px;writing-mode:lr-tb;text-anchor:middle;fill:#000000;fill-opacity:1;stroke:none;stroke-width:1px;stroke-linecap:butt;stroke-linejoin:miter;stroke-opacity:1"
       id="text3360">
      <path
         d="m 168.97284,499.69666 40.23437,0 -4.33593,14.0625 -1.48438,0 q 0.74219,-3.08594 0.74219,-5.50782 0,-2.85156 -1.75781,-4.29687 -1.32813,-1.09375 -6.83594,-1.09375 l -4.17969,0 -10.46875,36.48437 q -1.99219,6.875 -1.99219,8.47657 0,1.48437 1.25,2.46093 1.25,0.9375 4.41407,0.9375 l 1.79687,0 -0.46875,1.44532 -23.04687,0 0.42968,-1.44532 1.01563,0 q 3.04687,0 4.6875,-0.97656 1.13281,-0.66406 2.03125,-2.38281 0.9375,-1.75781 2.57812,-7.38281 l 10.97657,-37.61719 -3.16407,0 q -4.57031,0 -7.38281,1.17187 -2.77344,1.17188 -4.49219,3.39844 -1.71875,2.22656 -2.8125,6.32813 l -1.44531,0 3.71094,-14.0625 z"
         style=""
         id="path3385" />
    </g>
    <g
       style="font-style:italic;font-variant:normal;font-weight:normal;font-stretch:normal;font-size:80px;line-height:100%;font-family:'Times New Roman';-inkscape-font-specification:'Times New Roman, Italic';text-align:center;letter-spacing:0px;word-spacing:0px;writing-mode:lr-tb;text-anchor:middle;fill:#000000;fill-opacity:1;stroke:none;stroke-width:1px;stroke-linecap:butt;stroke-linejoin:miter;stroke-opacity:1"
       id="text3360-6">
      <path
         d="m 534.2818,500.30219 40.23437,0 -4.33593,14.0625 -1.48438,0 q 0.74219,-3.08594 0.74219,-5.50782 0,-2.85156 -1.75781,-4.29687 -1.32813,-1.09375 -6.83594,-1.09375 l -4.17969,0 -10.46875,36.48437 q -1.99219,6.875 -1.99219,8.47657 0,1.48437 1.25,2.46093 1.25,0.9375 4.41407,0.9375 l 1.79687,0 -0.46875,1.44532 -23.04687,0 0.42968,-1.44532 1.01563,0 q 3.04687,0 4.6875,-0.97656 1.13281,-0.66406 2.03125,-2.38281 0.9375,-1.75781 2.57812,-7.38281 l 10.97657,-37.61719 -3.16407,0 q -4.57031,0 -7.38281,1.17187 -2.77344,1.17188 -4.49219,3.39844 -1.71875,2.22656 -2.8125,6.32813 l -1.44531,0 3.71094,-14.0625 z"
         style=""
         id="path3388" />
      <path
         d="m 577.60211,521.90375 1.21094,-11.5625 q 0.50781,-4.92188 1.01562,-6.64063 0.74219,-2.46093 2.07032,-3.51562 1.36718,-1.09375 3.04687,-1.09375 1.40625,0 2.22656,0.78125 0.82032,0.78125 0.82032,1.99219 0,0.89843 -0.39063,1.99218 -0.50781,1.48438 -2.89062,6.52344 l -5.39063,11.52344 -1.71875,0 z"
         style=""
         id="path3390" />
    </g>
  </g>
</svg>
