<?xml version="1.0" encoding="UTF-8" standalone="no"?>
<!-- Created with Inkscape (http://www.inkscape.org/) -->

<svg
   xmlns:dc="http://purl.org/dc/elements/1.1/"
   xmlns:cc="http://creativecommons.org/ns#"
   xmlns:rdf="http://www.w3.org/1999/02/22-rdf-syntax-ns#"
   xmlns:svg="http://www.w3.org/2000/svg"
   xmlns="http://www.w3.org/2000/svg"
   xmlns:sodipodi="http://sodipodi.sourceforge.net/DTD/sodipodi-0.dtd"
   xmlns:inkscape="http://www.inkscape.org/namespaces/inkscape"
   width="210mm"
   height="297mm"
   viewBox="0 0 744.09448819 1052.3622047"
   id="svg2"
   version="1.1"
   inkscape:version="0.91 r13725"
   sodipodi:docname="composite.svg">
  <defs
     id="defs4" />
  <sodipodi:namedview
     id="base"
     pagecolor="#ffffff"
     bordercolor="#666666"
     borderopacity="1.0"
     inkscape:pageopacity="0.0"
     inkscape:pageshadow="2"
     inkscape:zoom="0.52548447"
     inkscape:cx="372.04724"
     inkscape:cy="526.1811"
     inkscape:document-units="px"
     inkscape:current-layer="layer1"
     showgrid="false"
     inkscape:snap-bbox="true"
     inkscape:bbox-paths="true"
     inkscape:bbox-nodes="true"
     inkscape:snap-bbox-edge-midpoints="true"
     inkscape:snap-bbox-midpoints="true"
     inkscape:object-paths="true"
     inkscape:snap-intersection-paths="true"
     inkscape:object-nodes="true"
     inkscape:snap-smooth-nodes="true"
     inkscape:snap-midpoints="true"
     inkscape:snap-object-midpoints="true"
     inkscape:snap-center="true"
     inkscape:snap-text-baseline="true"
     inkscape:snap-page="true"
     inkscape:window-width="1366"
     inkscape:window-height="705"
     inkscape:window-x="-8"
     inkscape:window-y="-8"
     inkscape:window-maximized="1" />
  <metadata
     id="metadata7">
    <rdf:RDF>
      <cc:Work
         rdf:about="">
        <dc:format>image/svg+xml</dc:format>
        <dc:type
           rdf:resource="http://purl.org/dc/dcmitype/StillImage" />
        <dc:title></dc:title>
      </cc:Work>
    </rdf:RDF>
  </metadata>
  <g
     inkscape:label="Layer 1"
     inkscape:groupmode="layer"
     id="layer1">
    <path
       style="opacity:1;fill:#ffffff;fill-opacity:1;stroke:#000000;stroke-width:10;stroke-linecap:butt;stroke-linejoin:miter;stroke-miterlimit:4;stroke-dasharray:none;stroke-dashoffset:0;stroke-opacity:1"
       id="path4167"
       sodipodi:type="arc"
       sodipodi:cx="372.04724"
       sodipodi:cy="526.18109"
       sodipodi:rx="220"
       sodipodi:ry="220"
       sodipodi:start="0"
       sodipodi:end="6.2826966"
       sodipodi:open="true"
       d="m 592.04724,526.18109 a 220,220 0 0 1 -219.97312,220 A 220,220 0 0 1 152.04725,526.23485 220,220 0 0 1 371.9666,306.18111 220,220 0 0 1 592.04721,526.07358" />
    <path
       style="opacity:1;fill:#ffffff;fill-opacity:1;stroke:#000000;stroke-width:10;stroke-linecap:butt;stroke-linejoin:miter;stroke-miterlimit:4;stroke-dasharray:10,10;stroke-dashoffset:0;stroke-opacity:1"
       d="m 372.04724,263.09055 0,526.18106"
       id="path4146"
       inkscape:connector-curvature="0" />
    <path
       style="opacity:1;fill:#ffffff;fill-opacity:1;stroke:#000000;stroke-width:10;stroke-linecap:butt;stroke-linejoin:miter;stroke-miterlimit:4;stroke-dasharray:none;stroke-dashoffset:0;stroke-opacity:1"
       id="path4148"
       sodipodi:type="arc"
       sodipodi:cx="186.02362"
       sodipodi:cy="526.18103"
       sodipodi:rx="119.99998"
       sodipodi:ry="119.99998"
       sodipodi:start="0"
       sodipodi:end="6.2826966"
       sodipodi:open="true"
       d="M 306.0236,526.18103 A 119.99998,119.99998 0 0 1 186.03828,646.18101 119.99998,119.99998 0 0 1 66.023647,526.21035 119.99998,119.99998 0 0 1 185.97964,406.18106 119.99998,119.99998 0 0 1 306.02358,526.12239" />
    <path
       style="opacity:1;fill:#ffffff;fill-opacity:1;stroke:#000000;stroke-width:10;stroke-linecap:butt;stroke-linejoin:miter;stroke-miterlimit:4;stroke-dasharray:none;stroke-dashoffset:0;stroke-opacity:1"
       id="path4148-5"
       sodipodi:type="arc"
       sodipodi:cx="558.07086"
       sodipodi:cy="526.18109"
       sodipodi:rx="119.99998"
       sodipodi:ry="119.99998"
       sodipodi:start="0"
       sodipodi:end="6.2826966"
       sodipodi:open="true"
       d="M 678.07084,526.18109 A 119.99998,119.99998 0 0 1 558.08552,646.18107 119.99998,119.99998 0 0 1 438.07089,526.21041 119.99998,119.99998 0 0 1 558.02688,406.18112 119.99998,119.99998 0 0 1 678.07082,526.12245" />
    <g
       style="font-style:normal;font-variant:normal;font-weight:normal;font-stretch:normal;font-size:80px;line-height:100%;font-family:'Times New Roman';-inkscape-font-specification:'Times New Roman, Normal';text-align:center;letter-spacing:0px;word-spacing:0px;writing-mode:lr-tb;text-anchor:middle;fill:#000000;fill-opacity:1;stroke:none;stroke-width:1px;stroke-linecap:butt;stroke-linejoin:miter;stroke-opacity:1"
       id="text4169">
      <path
         d="m 212.37128,552.66541 -14.14063,0 -17.92969,-24.76563 q -1.99218,0.0781 -3.24218,0.0781 -0.50782,0 -1.09375,0 -0.58594,-0.0391 -1.21094,-0.0781 l 0,15.39063 q 0,5 1.09375,6.21093 1.48437,1.71875 4.45312,1.71875 l 2.07032,0 0,1.44532 -22.69532,0 0,-1.44532 1.99219,0 q 3.35938,0 4.80469,-2.1875 0.82031,-1.21093 0.82031,-5.74218 l 0,-34.21875 q 0,-5 -1.09375,-6.21094 -1.52344,-1.71875 -4.53125,-1.71875 l -1.99219,0 0,-1.44531 19.29688,0 q 8.4375,0 12.42187,1.25 4.02344,1.21093 6.79688,4.53125 2.8125,3.28125 2.8125,7.85156 0,4.88281 -3.20313,8.47656 -3.16406,3.59375 -9.84375,5.07813 l 10.9375,15.19531 q 3.75,5.23437 6.44532,6.95312 2.69531,1.71875 7.03125,2.1875 l 0,1.44532 z m -37.61719,-27.22657 q 0.74219,0 1.28906,0.0391 0.54688,0 0.89844,0 7.57812,0 11.40625,-3.28125 3.86719,-3.28125 3.86719,-8.35938 0,-4.96094 -3.125,-8.04687 -3.08594,-3.125 -8.20313,-3.125 -2.26562,0 -6.13281,0.74218 l 0,22.03125 z"
         style=""
         id="path4194" />
    </g>
    <g
       style="font-style:normal;font-variant:normal;font-weight:normal;font-stretch:normal;font-size:80px;line-height:100%;font-family:'Times New Roman';-inkscape-font-specification:'Times New Roman, Normal';text-align:center;letter-spacing:0px;word-spacing:0px;writing-mode:lr-tb;text-anchor:middle;fill:#000000;fill-opacity:1;stroke:none;stroke-width:1px;stroke-linecap:butt;stroke-linejoin:miter;stroke-opacity:1"
       id="text4169-0">
      <path
         d="m 579.22321,553.27094 -14.14063,0 -17.92969,-24.76563 q -1.99218,0.0781 -3.24218,0.0781 -0.50782,0 -1.09375,0 -0.58594,-0.0391 -1.21094,-0.0781 l 0,15.39063 q 0,5 1.09375,6.21093 1.48437,1.71875 4.45312,1.71875 l 2.07032,0 0,1.44532 -22.69532,0 0,-1.44532 1.99219,0 q 3.35938,0 4.80469,-2.1875 0.82031,-1.21093 0.82031,-5.74218 l 0,-34.21875 q 0,-5 -1.09375,-6.21094 -1.52344,-1.71875 -4.53125,-1.71875 l -1.99219,0 0,-1.44531 19.29688,0 q 8.4375,0 12.42187,1.25 4.02344,1.21093 6.79688,4.53125 2.8125,3.28125 2.8125,7.85156 0,4.88281 -3.20313,8.47656 -3.16406,3.59375 -9.84375,5.07813 l 10.9375,15.19531 q 3.75,5.23437 6.44532,6.95312 2.69531,1.71875 7.03125,2.1875 l 0,1.44532 z m -37.61719,-27.22657 q 0.74219,0 1.28906,0.0391 0.54688,0 0.89844,0 7.57812,0 11.40625,-3.28125 3.86719,-3.28125 3.86719,-8.35938 0,-4.96094 -3.125,-8.04687 -3.08594,-3.125 -8.20313,-3.125 -2.26562,0 -6.13281,0.74218 l 0,22.03125 z"
         style=""
         id="path4197" />
      <path
         d="m 584.77008,521.90375 -2.10937,-11.5625 q -0.89844,-4.80469 -0.89844,-6.48438 0,-2.5 1.01562,-3.63281 1.01563,-1.13281 2.77344,-1.13281 1.75781,0 2.89063,1.17187 1.17187,1.13282 1.17187,3.00782 0,1.44531 -1.01562,7.10937 l -2.10938,11.52344 -1.71875,0 z"
         style=""
         id="path4199" />
    </g>
  </g>
</svg>
