<?xml version="1.0" encoding="UTF-8" standalone="no"?>
<!-- Created with Inkscape (http://www.inkscape.org/) -->

<svg
   xmlns:dc="http://purl.org/dc/elements/1.1/"
   xmlns:cc="http://creativecommons.org/ns#"
   xmlns:rdf="http://www.w3.org/1999/02/22-rdf-syntax-ns#"
   xmlns:svg="http://www.w3.org/2000/svg"
   xmlns="http://www.w3.org/2000/svg"
   xmlns:sodipodi="http://sodipodi.sourceforge.net/DTD/sodipodi-0.dtd"
   xmlns:inkscape="http://www.inkscape.org/namespaces/inkscape"
   width="210mm"
   height="297mm"
   viewBox="0 0 744.09448819 1052.3622047"
   id="svg2"
   version="1.1"
   inkscape:version="0.91 r13725"
   sodipodi:docname="graph.svg">
  <defs
     id="defs4" />
  <sodipodi:namedview
     id="base"
     pagecolor="#ffffff"
     bordercolor="#666666"
     borderopacity="1.0"
     inkscape:pageopacity="0.0"
     inkscape:pageshadow="2"
     inkscape:zoom="0.52548447"
     inkscape:cx="372.04724"
     inkscape:cy="526.1811"
     inkscape:document-units="px"
     inkscape:current-layer="layer1"
     showgrid="false"
     inkscape:snap-bbox="true"
     inkscape:bbox-paths="true"
     inkscape:bbox-nodes="true"
     inkscape:snap-bbox-edge-midpoints="true"
     inkscape:snap-bbox-midpoints="true"
     inkscape:object-paths="true"
     inkscape:snap-intersection-paths="true"
     inkscape:object-nodes="true"
     inkscape:snap-smooth-nodes="true"
     inkscape:snap-midpoints="true"
     inkscape:snap-center="true"
     inkscape:snap-text-baseline="true"
     inkscape:snap-page="true"
     inkscape:snap-object-midpoints="true"
     inkscape:window-width="1366"
     inkscape:window-height="705"
     inkscape:window-x="-8"
     inkscape:window-y="-8"
     inkscape:window-maximized="1" />
  <metadata
     id="metadata7">
    <rdf:RDF>
      <cc:Work
         rdf:about="">
        <dc:format>image/svg+xml</dc:format>
        <dc:type
           rdf:resource="http://purl.org/dc/dcmitype/StillImage" />
        <dc:title></dc:title>
      </cc:Work>
    </rdf:RDF>
  </metadata>
  <g
     inkscape:label="Layer 1"
     inkscape:groupmode="layer"
     id="layer1">
    <path
       style="opacity:1;fill:#000000;fill-opacity:1;stroke:#000000;stroke-width:10;stroke-linecap:butt;stroke-linejoin:miter;stroke-miterlimit:4;stroke-dasharray:none;stroke-opacity:1"
       d="M 92.525452,440.68292 283.52179,631.67926"
       id="path4161"
       inkscape:connector-curvature="0" />
    <path
       style="opacity:1;fill:#000000;fill-opacity:1;stroke:#000000;stroke-width:10;stroke-linecap:butt;stroke-linejoin:miter;stroke-miterlimit:4;stroke-dasharray:none;stroke-opacity:1"
       d="M 92.525452,631.67926 283.52179,440.68292"
       id="path4163"
       inkscape:connector-curvature="0" />
    <path
       style="opacity:1;fill:#000000;fill-opacity:1;stroke:#000000;stroke-width:20.75532532;stroke-linecap:butt;stroke-linejoin:miter;stroke-miterlimit:4;stroke-dasharray:none;stroke-opacity:1"
       id="path3342"
       sodipodi:type="arc"
       sodipodi:cx="188.02362"
       sodipodi:cy="536.18109"
       sodipodi:rx="9.6223373"
       sodipodi:ry="9.6223364"
       sodipodi:start="0"
       sodipodi:end="6.2826966"
       sodipodi:open="true"
       d="m 197.64596,536.18109 a 9.6223373,9.6223364 0 0 1 -9.62116,9.62234 9.6223373,9.6223364 0 0 1 -9.62352,-9.61999 9.6223373,9.6223364 0 0 1 9.61881,-9.62468 9.6223373,9.6223364 0 0 1 9.62587,9.61763" />
    <path
       style="opacity:1;fill:#000000;fill-opacity:1;stroke:#000000;stroke-width:10;stroke-linecap:butt;stroke-linejoin:miter;stroke-miterlimit:4;stroke-dasharray:none;stroke-opacity:1"
       d="M 464.5727,430.68291 655.56904,621.67924"
       id="path4161-5"
       inkscape:connector-curvature="0" />
    <path
       style="opacity:1;fill:#000000;fill-opacity:1;stroke:#000000;stroke-width:10;stroke-linecap:butt;stroke-linejoin:miter;stroke-miterlimit:4;stroke-dasharray:none;stroke-opacity:1"
       d="M 464.5727,621.67924 655.56904,430.68291"
       id="path4163-2"
       inkscape:connector-curvature="0" />
    <rect
       style="opacity:1;fill:#ffffff;fill-opacity:1;stroke:#000000;stroke-width:9.99979591;stroke-linecap:butt;stroke-linejoin:miter;stroke-miterlimit:4;stroke-dasharray:none;stroke-opacity:1"
       id="rect4188"
       width="90.000206"
       height="90.000198"
       x="515.0697"
       y="481.18198" />
    <path
       style="opacity:1;fill:#000000;fill-opacity:1;stroke:#000000;stroke-width:20.75532532;stroke-linecap:butt;stroke-linejoin:miter;stroke-miterlimit:4;stroke-dasharray:none;stroke-opacity:1"
       id="path3342-7-7"
       sodipodi:type="arc"
       sodipodi:cx="605.06989"
       sodipodi:cy="481.18204"
       sodipodi:rx="9.6223373"
       sodipodi:ry="9.6223364"
       sodipodi:start="0"
       sodipodi:end="6.2826966"
       sodipodi:open="true"
       d="m 614.69222,481.18204 a 9.6223373,9.6223364 0 0 1 -9.62116,9.62233 9.6223373,9.6223364 0 0 1 -9.62351,-9.61998 9.6223373,9.6223364 0 0 1 9.61881,-9.62469 9.6223373,9.6223364 0 0 1 9.62586,9.61763" />
    <path
       style="opacity:1;fill:#000000;fill-opacity:1;stroke:#000000;stroke-width:20.75532532;stroke-linecap:butt;stroke-linejoin:miter;stroke-miterlimit:4;stroke-dasharray:none;stroke-opacity:1"
       id="path3342-7-7-1"
       sodipodi:type="arc"
       sodipodi:cx="515.06976"
       sodipodi:cy="571.18219"
       sodipodi:rx="9.6223373"
       sodipodi:ry="9.6223364"
       sodipodi:start="0"
       sodipodi:end="6.2826966"
       sodipodi:open="true"
       d="m 524.6921,571.18219 a 9.6223373,9.6223364 0 0 1 -9.62116,9.62234 9.6223373,9.6223364 0 0 1 -9.62351,-9.61999 9.6223373,9.6223364 0 0 1 9.61881,-9.62469 9.6223373,9.6223364 0 0 1 9.62586,9.61764" />
    <path
       style="opacity:1;fill:#000000;fill-opacity:1;stroke:#000000;stroke-width:20.75532532;stroke-linecap:butt;stroke-linejoin:miter;stroke-miterlimit:4;stroke-dasharray:none;stroke-opacity:1"
       id="path3342-7-7-7"
       sodipodi:type="arc"
       sodipodi:cx="515.0697"
       sodipodi:cy="481.18198"
       sodipodi:rx="9.6223373"
       sodipodi:ry="9.6223364"
       sodipodi:start="0"
       sodipodi:end="6.2826966"
       sodipodi:open="true"
       d="m 524.69204,481.18198 a 9.6223373,9.6223364 0 0 1 -9.62116,9.62233 9.6223373,9.6223364 0 0 1 -9.62351,-9.61998 9.6223373,9.6223364 0 0 1 9.61881,-9.62469 9.6223373,9.6223364 0 0 1 9.62586,9.61763" />
    <path
       style="opacity:1;fill:#000000;fill-opacity:1;stroke:#000000;stroke-width:20.75532532;stroke-linecap:butt;stroke-linejoin:miter;stroke-miterlimit:4;stroke-dasharray:none;stroke-opacity:1"
       id="path3342-7-7-0"
       sodipodi:type="arc"
       sodipodi:cx="605.06989"
       sodipodi:cy="571.18011"
       sodipodi:rx="9.6223373"
       sodipodi:ry="9.6223364"
       sodipodi:start="0"
       sodipodi:end="6.2826966"
       sodipodi:open="true"
       d="m 614.69222,571.18011 a 9.6223373,9.6223364 0 0 1 -9.62116,9.62234 9.6223373,9.6223364 0 0 1 -9.62351,-9.61998 9.6223373,9.6223364 0 0 1 9.61881,-9.62469 9.6223373,9.6223364 0 0 1 9.62586,9.61763" />
    <g
       style="font-style:normal;font-weight:normal;font-size:108.4171524px;line-height:100%;font-family:sans-serif;text-align:center;letter-spacing:0px;word-spacing:0px;text-anchor:middle;fill:#000000;fill-opacity:1;stroke:none;stroke-width:1px;stroke-linecap:butt;stroke-linejoin:miter;stroke-opacity:1"
       id="text4232">
      <path
         d="m 400.18381,507.14988 q 7.04076,7.67602 12.17576,11.69931 5.13499,3.97035 9.68766,5.92906 l 0,2.38222 q -5.24087,2.54102 -10.16411,6.51138 -4.92324,3.91741 -11.75225,11.54049 l -4.07623,0 q 4.97618,-10.64055 10.4288,-16.35786 l -84.43621,0 0,-5.34674 84.43621,0 q -4.02329,-5.13499 -5.61143,-7.62308 -1.58815,-2.48809 -4.71149,-8.73478 l 4.02329,0 z"
         style=""
         id="path4239" />
    </g>
  </g>
</svg>
