<?xml version="1.0" encoding="UTF-8" standalone="no"?>
<!-- Created with Inkscape (http://www.inkscape.org/) -->

<svg
   xmlns:dc="http://purl.org/dc/elements/1.1/"
   xmlns:cc="http://creativecommons.org/ns#"
   xmlns:rdf="http://www.w3.org/1999/02/22-rdf-syntax-ns#"
   xmlns:svg="http://www.w3.org/2000/svg"
   xmlns="http://www.w3.org/2000/svg"
   xmlns:sodipodi="http://sodipodi.sourceforge.net/DTD/sodipodi-0.dtd"
   xmlns:inkscape="http://www.inkscape.org/namespaces/inkscape"
   width="210mm"
   height="297mm"
   viewBox="0 0 744.09448819 1052.3622047"
   id="svg2"
   version="1.1"
   inkscape:version="0.91 r13725"
   sodipodi:docname="passes.svg">
  <defs
     id="defs4" />
  <sodipodi:namedview
     id="base"
     pagecolor="#ffffff"
     bordercolor="#666666"
     borderopacity="1.0"
     inkscape:pageopacity="0.0"
     inkscape:pageshadow="2"
     inkscape:zoom="0.50933034"
     inkscape:cx="372.04724"
     inkscape:cy="526.1811"
     inkscape:document-units="px"
     inkscape:current-layer="layer1"
     showgrid="false"
     inkscape:snap-bbox="true"
     inkscape:bbox-paths="true"
     inkscape:snap-bbox-edge-midpoints="true"
     inkscape:bbox-nodes="true"
     inkscape:snap-bbox-midpoints="true"
     inkscape:object-paths="true"
     inkscape:object-nodes="true"
     inkscape:snap-smooth-nodes="true"
     inkscape:snap-midpoints="true"
     inkscape:snap-intersection-paths="true"
     inkscape:snap-object-midpoints="true"
     inkscape:snap-center="true"
     inkscape:snap-text-baseline="true"
     inkscape:snap-page="true"
     showguides="false"
     inkscape:window-width="1366"
     inkscape:window-height="705"
     inkscape:window-x="-8"
     inkscape:window-y="-8"
     inkscape:window-maximized="1"
     inkscape:snap-global="true" />
  <metadata
     id="metadata7">
    <rdf:RDF>
      <cc:Work
         rdf:about="">
        <dc:format>image/svg+xml</dc:format>
        <dc:type
           rdf:resource="http://purl.org/dc/dcmitype/StillImage" />
        <dc:title />
      </cc:Work>
    </rdf:RDF>
  </metadata>
  <g
     inkscape:label="Layer 1"
     inkscape:groupmode="layer"
     id="layer1">
    <path
       style="opacity:1;fill:none;fill-opacity:1;stroke:#000000;stroke-width:10;stroke-linecap:butt;stroke-linejoin:miter;stroke-miterlimit:4;stroke-dasharray:none;stroke-opacity:1"
       d="m 325.24683,692.15295 -137.28978,0.37012"
       id="path4362"
       inkscape:connector-curvature="0" />
    <path
       style="opacity:1;fill:#ffffff;fill-opacity:1;stroke:#000000;stroke-width:10;stroke-linecap:butt;stroke-linejoin:miter;stroke-miterlimit:4;stroke-dasharray:none;stroke-opacity:1"
       d="m 420.84973,360.63039 140.09224,0"
       id="path4185"
       inkscape:connector-curvature="0" />
    <g
       transform="matrix(0,-1,1,0,434.0552,1.3085939e-6)"
       style="font-style:normal;font-variant:normal;font-weight:normal;font-stretch:normal;font-size:80px;line-height:100%;font-family:'Times New Roman';-inkscape-font-specification:'Times New Roman, Normal';text-align:center;letter-spacing:0px;word-spacing:0px;writing-mode:lr-tb;text-anchor:middle;fill:#000000;fill-opacity:1;stroke:none;stroke-width:1px;stroke-linecap:butt;stroke-linejoin:miter;stroke-opacity:1"
       id="text4843-4-7-9">
      <path
         inkscape:connector-curvature="0"
         d="m -489.28656,123.15628 0,1.75781 q -3.67188,1.67969 -7.22656,4.53125 -3.55469,2.85157 -8.63282,8.63282 l -3.125,0 q 2.69532,-6.71875 7.57813,-12.14844 l -50.97656,0 q 4.88281,5.42969 7.57812,12.14844 l -3.125,0 q -5.07812,-5.78125 -8.63281,-8.63282 -3.55469,-2.85156 -7.22656,-4.53125 l 0,-1.75781 q 3.67187,-1.71875 7.22656,-4.53125 3.55469,-2.85156 8.63281,-8.67187 l 3.125,0 q -2.69531,6.71875 -7.57812,12.14843 l 50.97656,0 q -4.88281,-5.42968 -7.57813,-12.14843 l 3.125,0 q 5.07813,5.82031 8.63282,8.67187 3.55468,2.8125 7.22656,4.53125 z"
         id="path4928-3-2" />
    </g>
    <path
       style="opacity:1;fill:#ffffff;fill-opacity:1;stroke:#000000;stroke-width:10;stroke-linecap:butt;stroke-linejoin:miter;stroke-miterlimit:4;stroke-dasharray:none;stroke-opacity:1"
       d="M 420.76157,458.17023 701.12238,263.09055"
       id="path4516"
       inkscape:connector-curvature="0" />
    <path
       style="opacity:1;fill:#ffffff;fill-opacity:1;stroke:#000000;stroke-width:0;stroke-linecap:butt;stroke-linejoin:miter;stroke-miterlimit:4;stroke-dasharray:none;stroke-opacity:1"
       id="path4528"
       sodipodi:type="arc"
       sodipodi:cx="497.23322"
       sodipodi:cy="404.95999"
       sodipodi:rx="14.999997"
       sodipodi:ry="14.999997"
       sodipodi:start="0"
       sodipodi:end="6.2826966"
       sodipodi:open="true"
       d="m 512.23321,404.95999 a 14.999997,14.999997 0 0 1 -14.99816,15 14.999997,14.999997 0 0 1 -15.00183,-14.99633 14.999997,14.999997 0 0 1 14.9945,-15.00366 14.999997,14.999997 0 0 1 15.00549,14.99266" />
    <path
       style="opacity:1;fill:#ffffff;fill-opacity:1;stroke:#000000;stroke-width:10;stroke-linecap:butt;stroke-linejoin:miter;stroke-miterlimit:4;stroke-dasharray:none;stroke-opacity:1"
       d="M 420.76157,263.09055 701.12238,458.17023"
       id="path4514"
       inkscape:connector-curvature="0" />
    <path
       style="opacity:1;fill:#ffffff;fill-opacity:1;stroke:#000000;stroke-width:0;stroke-linecap:butt;stroke-linejoin:miter;stroke-miterlimit:4;stroke-dasharray:none;stroke-opacity:1"
       id="path4528-9"
       sodipodi:type="arc"
       sodipodi:cx="497.23322"
       sodipodi:cy="-316.30078"
       sodipodi:rx="14.999997"
       sodipodi:ry="14.999997"
       sodipodi:start="0"
       sodipodi:end="6.2826966"
       sodipodi:open="true"
       d="m 512.23321,-316.30078 a 14.999997,14.999997 0 0 1 -14.99816,15 14.999997,14.999997 0 0 1 -15.00183,-14.99634 14.999997,14.999997 0 0 1 14.9945,-15.00366 14.999997,14.999997 0 0 1 15.00549,14.99267"
       transform="scale(1,-1)" />
    <path
       style="opacity:1;fill:#ffffff;fill-opacity:1;stroke:#000000;stroke-width:0;stroke-linecap:butt;stroke-linejoin:miter;stroke-miterlimit:4;stroke-dasharray:none;stroke-opacity:1"
       id="path4528-9-1"
       sodipodi:type="arc"
       sodipodi:cx="490.85175"
       sodipodi:cy="-360.6304"
       sodipodi:rx="14.999997"
       sodipodi:ry="14.999997"
       sodipodi:start="0"
       sodipodi:end="6.2826966"
       sodipodi:open="true"
       d="m 505.85174,-360.6304 a 14.999997,14.999997 0 0 1 -14.99816,15 14.999997,14.999997 0 0 1 -15.00183,-14.99634 14.999997,14.999997 0 0 1 14.9945,-15.00366 14.999997,14.999997 0 0 1 15.00549,14.99267"
       transform="scale(1,-1)" />
    <path
       style="opacity:1;fill:none;fill-opacity:1;stroke:#000000;stroke-width:10;stroke-linecap:butt;stroke-linejoin:miter;stroke-miterlimit:4;stroke-dasharray:none;stroke-opacity:1"
       d="m 560.94197,360.63039 c -10e-6,-97.45165 -70.13429,-97.45164 -70.09021,0 0.0441,97.45164 69.71426,45.52591 70.0902,97.45164"
       id="path4191"
       inkscape:connector-curvature="0" />
    <path
       style="opacity:1;fill:#ffffff;fill-opacity:1;stroke:#000000;stroke-width:9.99959469;stroke-linecap:butt;stroke-linejoin:miter;stroke-miterlimit:4;stroke-dasharray:none;stroke-opacity:1"
       id="path4251-2"
       sodipodi:type="arc"
       sodipodi:cx="560.94196"
       sodipodi:cy="360.63034"
       sodipodi:rx="45.000202"
       sodipodi:ry="45.000202"
       sodipodi:start="0"
       sodipodi:end="6.2826966"
       sodipodi:open="true"
       d="m 605.94216,360.63034 a 45.000202,45.000202 0 0 1 -44.99471,45.0002 45.000202,45.000202 0 0 1 -45.0057,-44.9892 45.000202,45.000202 0 0 1 44.98371,-45.0112 45.000202,45.000202 0 0 1 45.01669,44.97821" />
    <g
       style="font-style:normal;font-variant:normal;font-weight:normal;font-stretch:normal;font-size:80px;line-height:100%;font-family:'Times New Roman';-inkscape-font-specification:'Times New Roman, Normal';text-align:center;letter-spacing:0px;word-spacing:0px;writing-mode:lr-tb;text-anchor:middle;fill:#000000;fill-opacity:1;stroke:none;stroke-width:1px;stroke-linecap:butt;stroke-linejoin:miter;stroke-opacity:1"
       id="text4332-2">
      <path
         d="m 587.28961,387.11472 -14.14062,0 -17.92969,-24.76563 q -1.99219,0.0781 -3.24219,0.0781 -0.50781,0 -1.09375,0 -0.58594,-0.0391 -1.21094,-0.0781 l 0,15.39063 q 0,5 1.09375,6.21093 1.48438,1.71875 4.45313,1.71875 l 2.07031,0 0,1.44532 -22.69531,0 0,-1.44532 1.99219,0 q 3.35937,0 4.80468,-2.1875 0.82032,-1.21093 0.82032,-5.74218 l 0,-34.21875 q 0,-5 -1.09375,-6.21094 -1.52344,-1.71875 -4.53125,-1.71875 l -1.99219,0 0,-1.44531 19.29687,0 q 8.4375,0 12.42188,1.25 4.02344,1.21093 6.79687,4.53125 2.8125,3.28125 2.8125,7.85156 0,4.88281 -3.20312,8.47656 -3.16406,3.59375 -9.84375,5.07813 l 10.9375,15.19531 q 3.75,5.23437 6.44531,6.95312 2.69531,1.71875 7.03125,2.1875 l 0,1.44532 z m -37.61719,-27.22657 q 0.74219,0 1.28907,0.0391 0.54687,0 0.89843,0 7.57813,0 11.40625,-3.28125 3.86719,-3.28125 3.86719,-8.35938 0,-4.96094 -3.125,-8.04687 -3.08594,-3.125 -8.20312,-3.125 -2.26563,0 -6.13282,0.74218 l 0,22.03125 z"
         id="path3378"
         style="" />
    </g>
    <path
       style="opacity:1;fill:#ffffff;fill-opacity:1;stroke:#000000;stroke-width:10;stroke-linecap:butt;stroke-linejoin:miter;stroke-miterlimit:4;stroke-dasharray:none;stroke-opacity:1"
       d="M 699.20823,789.27171 418.84743,594.19203"
       id="path4516-6"
       inkscape:connector-curvature="0" />
    <path
       style="opacity:1;fill:#ffffff;fill-opacity:1;stroke:#000000;stroke-width:0;stroke-linecap:butt;stroke-linejoin:miter;stroke-miterlimit:4;stroke-dasharray:none;stroke-opacity:1"
       id="path4528-5"
       sodipodi:type="arc"
       sodipodi:cx="-622.73651"
       sodipodi:cy="736.06146"
       sodipodi:rx="14.999997"
       sodipodi:ry="14.999997"
       sodipodi:start="0"
       sodipodi:end="6.2826966"
       sodipodi:open="true"
       d="m -607.73651,736.06146 a 14.999997,14.999997 0 0 1 -14.99817,15 14.999997,14.999997 0 0 1 -15.00183,-14.99633 14.999997,14.999997 0 0 1 14.9945,-15.00366 14.999997,14.999997 0 0 1 15.00549,14.99266"
       transform="scale(-1,1)" />
    <path
       style="opacity:1;fill:#ffffff;fill-opacity:1;stroke:#000000;stroke-width:10;stroke-linecap:butt;stroke-linejoin:miter;stroke-miterlimit:4;stroke-dasharray:none;stroke-opacity:1"
       d="M 699.20823,594.19203 418.84743,789.27172"
       id="path4514-2"
       inkscape:connector-curvature="0" />
    <path
       style="opacity:1;fill:#ffffff;fill-opacity:1;stroke:#000000;stroke-width:0;stroke-linecap:butt;stroke-linejoin:miter;stroke-miterlimit:4;stroke-dasharray:none;stroke-opacity:1"
       id="path4528-9-8"
       sodipodi:type="arc"
       sodipodi:cx="-622.73651"
       sodipodi:cy="-647.40228"
       sodipodi:rx="14.999997"
       sodipodi:ry="14.999997"
       sodipodi:start="0"
       sodipodi:end="6.2826966"
       sodipodi:open="true"
       d="m -607.73651,-647.40228 a 14.999997,14.999997 0 0 1 -14.99817,14.99999 14.999997,14.999997 0 0 1 -15.00183,-14.99633 14.999997,14.999997 0 0 1 14.9945,-15.00366 14.999997,14.999997 0 0 1 15.00549,14.99267"
       transform="scale(-1,-1)" />
    <path
       style="opacity:1;fill:#ffffff;fill-opacity:1;stroke:#000000;stroke-width:10;stroke-linecap:butt;stroke-linejoin:miter;stroke-miterlimit:4;stroke-dasharray:none;stroke-opacity:1"
       d="M 699.20826,789.27168 418.84744,594.192"
       id="path4516-69"
       inkscape:connector-curvature="0" />
    <path
       style="opacity:1;fill:#ffffff;fill-opacity:1;stroke:#000000;stroke-width:0;stroke-linecap:butt;stroke-linejoin:miter;stroke-miterlimit:4;stroke-dasharray:none;stroke-opacity:1"
       id="path4528-3"
       sodipodi:type="arc"
       sodipodi:cx="-622.73663"
       sodipodi:cy="736.06146"
       sodipodi:rx="14.999997"
       sodipodi:ry="14.999997"
       sodipodi:start="0"
       sodipodi:end="6.2826966"
       sodipodi:open="true"
       d="m -607.73664,736.06146 a 14.999997,14.999997 0 0 1 -14.99816,15 14.999997,14.999997 0 0 1 -15.00183,-14.99633 14.999997,14.999997 0 0 1 14.9945,-15.00366 14.999997,14.999997 0 0 1 15.00549,14.99266"
       transform="scale(-1,1)" />
    <path
       style="opacity:1;fill:#ffffff;fill-opacity:1;stroke:#000000;stroke-width:10;stroke-linecap:butt;stroke-linejoin:miter;stroke-miterlimit:4;stroke-dasharray:none;stroke-opacity:1"
       d="M 699.20826,594.192 418.84744,789.27168"
       id="path4514-7"
       inkscape:connector-curvature="0" />
    <path
       style="opacity:1;fill:#ffffff;fill-opacity:1;stroke:#000000;stroke-width:0;stroke-linecap:butt;stroke-linejoin:miter;stroke-miterlimit:4;stroke-dasharray:none;stroke-opacity:1"
       id="path4528-9-5"
       sodipodi:type="arc"
       sodipodi:cx="-622.73663"
       sodipodi:cy="-647.40222"
       sodipodi:rx="14.999997"
       sodipodi:ry="14.999997"
       sodipodi:start="0"
       sodipodi:end="6.2826966"
       sodipodi:open="true"
       d="m -607.73664,-647.40222 a 14.999997,14.999997 0 0 1 -14.99816,15 14.999997,14.999997 0 0 1 -15.00183,-14.99634 14.999997,14.999997 0 0 1 14.9945,-15.00366 14.999997,14.999997 0 0 1 15.00549,14.99267"
       transform="scale(-1,-1)" />
    <path
       style="opacity:1;fill:none;fill-opacity:1;stroke:#000000;stroke-width:10;stroke-linecap:butt;stroke-linejoin:miter;stroke-miterlimit:4;stroke-dasharray:none;stroke-opacity:1"
       d="m 559.02786,691.73184 c 0,-97.45165 70.1343,-97.45164 70.0902,0 -0.044,97.45164 -69.7142,45.52591 -70.0902,97.45164"
       id="path4191-0"
       inkscape:connector-curvature="0" />
    <path
       style="opacity:1;fill:none;fill-opacity:1;stroke:#000000;stroke-width:10;stroke-linecap:butt;stroke-linejoin:miter;stroke-miterlimit:4;stroke-dasharray:none;stroke-opacity:1"
       d="m 418.84744,691.73187 140.18038,-10e-6"
       id="path4252"
       inkscape:connector-curvature="0" />
    <path
       style="opacity:1;fill:#ffffff;fill-opacity:1;stroke:#000000;stroke-width:9.99959469;stroke-linecap:butt;stroke-linejoin:miter;stroke-miterlimit:4;stroke-dasharray:none;stroke-opacity:1"
       id="path4251-2-3"
       sodipodi:type="arc"
       sodipodi:cx="-559.02789"
       sodipodi:cy="691.73181"
       sodipodi:rx="45.000202"
       sodipodi:ry="45.000202"
       sodipodi:start="0"
       sodipodi:end="6.2826966"
       sodipodi:open="true"
       d="m -514.02769,691.73181 a 45.000202,45.000202 0 0 1 -44.99471,45.0002 45.000202,45.000202 0 0 1 -45.00569,-44.9892 45.000202,45.000202 0 0 1 44.9837,-45.0112 45.000202,45.000202 0 0 1 45.01669,44.97821"
       transform="scale(-1,1)" />
    <g
       style="font-style:normal;font-variant:normal;font-weight:normal;font-stretch:normal;font-size:80px;line-height:100%;font-family:'Times New Roman';-inkscape-font-specification:'Times New Roman, Normal';text-align:center;letter-spacing:0px;word-spacing:0px;writing-mode:lr-tb;text-anchor:middle;fill:#000000;fill-opacity:1;stroke:none;stroke-width:1px;stroke-linecap:butt;stroke-linejoin:miter;stroke-opacity:1"
       id="text4332-2-1">
      <path
         d="m 585.37555,718.21619 -14.14063,0 -17.92968,-24.76563 q -1.99219,0.0781 -3.24219,0.0781 -0.50781,0 -1.09375,0 -0.58594,-0.0391 -1.21094,-0.0781 l 0,15.39063 q 0,5 1.09375,6.21093 1.48438,1.71875 4.45313,1.71875 l 2.07031,0 0,1.44532 -22.69531,0 0,-1.44532 1.99218,0 q 3.35938,0 4.80469,-2.1875 0.82031,-1.21093 0.82031,-5.74218 l 0,-34.21875 q 0,-5 -1.09375,-6.21094 -1.52343,-1.71875 -4.53125,-1.71875 l -1.99218,0 0,-1.44531 19.29687,0 q 8.4375,0 12.42188,1.25 4.02343,1.21093 6.79687,4.53125 2.8125,3.28125 2.8125,7.85156 0,4.88281 -3.20312,8.47656 -3.16407,3.59375 -9.84375,5.07813 l 10.9375,15.19531 q 3.75,5.23437 6.44531,6.95312 2.69531,1.71875 7.03125,2.1875 l 0,1.44532 z m -37.61719,-27.22657 q 0.74219,0 1.28906,0.0391 0.54688,0 0.89844,0 7.57813,0 11.40625,-3.28125 3.86719,-3.28125 3.86719,-8.35938 0,-4.96094 -3.125,-8.04687 -3.08594,-3.125 -8.20313,-3.125 -2.26562,0 -6.13281,0.74218 l 0,22.03125 z"
         id="path3381"
         style="" />
    </g>
    <g
       transform="matrix(0,-1,1,0,61.050764,0.08812745)"
       style="font-style:normal;font-variant:normal;font-weight:normal;font-stretch:normal;font-size:80px;line-height:100%;font-family:'Times New Roman';-inkscape-font-specification:'Times New Roman, Normal';text-align:center;letter-spacing:0px;word-spacing:0px;writing-mode:lr-tb;text-anchor:middle;fill:#000000;fill-opacity:1;stroke:none;stroke-width:1px;stroke-linecap:butt;stroke-linejoin:miter;stroke-opacity:1"
       id="text4843-4-7-9-7">
      <path
         inkscape:connector-curvature="0"
         d="m -489.28656,123.15628 0,1.75781 q -3.67188,1.67969 -7.22656,4.53125 -3.55469,2.85157 -8.63282,8.63282 l -3.125,0 q 2.69532,-6.71875 7.57813,-12.14844 l -50.97656,0 q 4.88281,5.42969 7.57812,12.14844 l -3.125,0 q -5.07812,-5.78125 -8.63281,-8.63282 -3.55469,-2.85156 -7.22656,-4.53125 l 0,-1.75781 q 3.67187,-1.71875 7.22656,-4.53125 3.55469,-2.85156 8.63281,-8.67187 l 3.125,0 q -2.69531,6.71875 -7.57812,12.14843 l 50.97656,0 q -4.88281,-5.42968 -7.57813,-12.14843 l 3.125,0 q 5.07813,5.82031 8.63282,8.67187 3.55468,2.8125 7.22656,4.53125 z"
         id="path4928-3-2-4" />
    </g>
    <path
       style="opacity:1;fill:none;fill-opacity:1;stroke:#000000;stroke-width:10;stroke-linecap:butt;stroke-linejoin:miter;stroke-miterlimit:4;stroke-dasharray:none;stroke-opacity:1"
       d="m 325.24686,359.71962 -137.28978,0.37012"
       id="path4362-4"
       inkscape:connector-curvature="0" />
    <path
       style="opacity:1;fill:#ffffff;fill-opacity:1;stroke:#000000;stroke-width:0;stroke-linecap:butt;stroke-linejoin:miter;stroke-miterlimit:4;stroke-dasharray:none;stroke-opacity:1"
       id="path4528-9-5-1-4"
       sodipodi:type="arc"
       sodipodi:cx="-256.11276"
       sodipodi:cy="-692.33936"
       sodipodi:rx="14.999997"
       sodipodi:ry="14.999997"
       sodipodi:start="0"
       sodipodi:end="6.2826966"
       sodipodi:open="true"
       d="m -241.11277,-692.33936 a 14.999997,14.999997 0 0 1 -14.99816,15 14.999997,14.999997 0 0 1 -15.00183,-14.99633 14.999997,14.999997 0 0 1 14.9945,-15.00366 14.999997,14.999997 0 0 1 15.00549,14.99266"
       transform="scale(-1,-1)" />
    <path
       style="opacity:1;fill:none;fill-opacity:1;stroke:#000000;stroke-width:10;stroke-linecap:butt;stroke-linejoin:miter;stroke-miterlimit:4;stroke-dasharray:none;stroke-opacity:1"
       d="m 186.02347,691.81997 c 0,-97.45165 70.1343,-97.45164 70.0902,0 -0.044,97.45164 -69.7142,45.52591 -70.0902,97.45164"
       id="path4191-0-6"
       inkscape:connector-curvature="0" />
    <path
       style="opacity:1;fill:none;fill-opacity:1;stroke:#000000;stroke-width:10;stroke-linecap:butt;stroke-linejoin:miter;stroke-miterlimit:4;stroke-dasharray:none;stroke-opacity:1"
       d="M 47.757133,263.17868 186.50199,359.71963"
       id="path4397"
       inkscape:connector-curvature="0" />
    <path
       style="opacity:1;fill:none;fill-opacity:1;stroke:#000000;stroke-width:10;stroke-linecap:butt;stroke-linejoin:miter;stroke-miterlimit:4;stroke-dasharray:none;stroke-opacity:1"
       d="M 50.628273,456.26057 189.87111,361.4216"
       id="path4399"
       inkscape:connector-curvature="0" />
    <path
       style="opacity:1;fill:#ffffff;fill-opacity:1;stroke:#000000;stroke-width:0;stroke-linecap:butt;stroke-linejoin:miter;stroke-miterlimit:4;stroke-dasharray:none;stroke-opacity:1"
       id="path4528-7"
       sodipodi:type="arc"
       sodipodi:cx="124.22876"
       sodipodi:cy="405.0481"
       sodipodi:rx="14.999997"
       sodipodi:ry="14.999997"
       sodipodi:start="0"
       sodipodi:end="6.2826966"
       sodipodi:open="true"
       d="m 139.22876,405.0481 a 14.999997,14.999997 0 0 1 -14.99817,14.99999 14.999997,14.999997 0 0 1 -15.00183,-14.99633 14.999997,14.999997 0 0 1 14.9945,-15.00366 14.999997,14.999997 0 0 1 15.0055,14.99267" />
    <path
       style="opacity:1;fill:#ffffff;fill-opacity:1;stroke:#000000;stroke-width:0;stroke-linecap:butt;stroke-linejoin:miter;stroke-miterlimit:4;stroke-dasharray:none;stroke-opacity:1"
       id="path4528-9-9"
       sodipodi:type="arc"
       sodipodi:cx="124.22876"
       sodipodi:cy="-316.38889"
       sodipodi:rx="14.999997"
       sodipodi:ry="14.999997"
       sodipodi:start="0"
       sodipodi:end="6.2826966"
       sodipodi:open="true"
       d="m 139.22876,-316.38889 a 14.999997,14.999997 0 0 1 -14.99817,15 14.999997,14.999997 0 0 1 -15.00183,-14.99633 14.999997,14.999997 0 0 1 14.9945,-15.00366 14.999997,14.999997 0 0 1 15.0055,14.99266"
       transform="scale(1,-1)" />
    <path
       style="opacity:1;fill:none;fill-opacity:1;stroke:#000000;stroke-width:10;stroke-linecap:butt;stroke-linejoin:miter;stroke-miterlimit:4;stroke-dasharray:none;stroke-opacity:1"
       d="m 187.93757,360.71852 c 0,-97.45165 -70.13433,-97.45164 -70.09025,0 0.0441,97.45164 69.71425,45.52591 70.09025,97.45164"
       id="path4191-9"
       inkscape:connector-curvature="0" />
    <path
       style="opacity:1;fill:#ffffff;fill-opacity:1;stroke:#000000;stroke-width:9.99959469;stroke-linecap:butt;stroke-linejoin:miter;stroke-miterlimit:4;stroke-dasharray:none;stroke-opacity:1"
       id="path4251-2-6"
       sodipodi:type="arc"
       sodipodi:cx="187.9375"
       sodipodi:cy="360.71844"
       sodipodi:rx="45.000202"
       sodipodi:ry="45.000202"
       sodipodi:start="0"
       sodipodi:end="6.2826966"
       sodipodi:open="true"
       d="m 232.9377,360.71844 a 45.000202,45.000202 0 0 1 -44.9947,45.00021 45.000202,45.000202 0 0 1 -45.0057,-44.98921 45.000202,45.000202 0 0 1 44.98371,-45.01119 45.000202,45.000202 0 0 1 45.01669,44.9782" />
    <g
       transform="translate(-373.00444,0.08812745)"
       style="font-style:normal;font-variant:normal;font-weight:normal;font-stretch:normal;font-size:80px;line-height:100%;font-family:'Times New Roman';-inkscape-font-specification:'Times New Roman, Normal';text-align:center;letter-spacing:0px;word-spacing:0px;writing-mode:lr-tb;text-anchor:middle;fill:#000000;fill-opacity:1;stroke:none;stroke-width:1px;stroke-linecap:butt;stroke-linejoin:miter;stroke-opacity:1"
       id="text4332-2-7">
      <path
         inkscape:connector-curvature="0"
         d="m 587.28961,387.11472 -14.14062,0 -17.92969,-24.76563 q -1.99219,0.0781 -3.24219,0.0781 -0.50781,0 -1.09375,0 -0.58594,-0.0391 -1.21094,-0.0781 l 0,15.39063 q 0,5 1.09375,6.21093 1.48438,1.71875 4.45313,1.71875 l 2.07031,0 0,1.44532 -22.69531,0 0,-1.44532 1.99219,0 q 3.35937,0 4.80468,-2.1875 0.82032,-1.21093 0.82032,-5.74218 l 0,-34.21875 q 0,-5 -1.09375,-6.21094 -1.52344,-1.71875 -4.53125,-1.71875 l -1.99219,0 0,-1.44531 19.29687,0 q 8.4375,0 12.42188,1.25 4.02344,1.21093 6.79687,4.53125 2.8125,3.28125 2.8125,7.85156 0,4.88281 -3.20312,8.47656 -3.16406,3.59375 -9.84375,5.07813 l 10.9375,15.19531 q 3.75,5.23437 6.44531,6.95312 2.69531,1.71875 7.03125,2.1875 l 0,1.44532 z m -37.61719,-27.22657 q 0.74219,0 1.28907,0.0391 0.54687,0 0.89843,0 7.57813,0 11.40625,-3.28125 3.86719,-3.28125 3.86719,-8.35938 0,-4.96094 -3.125,-8.04687 -3.08594,-3.125 -8.20312,-3.125 -2.26563,0 -6.13282,0.74218 l 0,22.03125 z"
         id="path3378-4" />
    </g>
    <path
       style="opacity:1;fill:none;fill-opacity:1;stroke:#000000;stroke-width:10;stroke-linecap:butt;stroke-linejoin:miter;stroke-miterlimit:4;stroke-dasharray:none;stroke-opacity:1"
       d="M 47.757122,595.61204 186.50197,692.15295"
       id="path4401"
       inkscape:connector-curvature="0" />
    <path
       style="opacity:1;fill:none;fill-opacity:1;stroke:#000000;stroke-width:10;stroke-linecap:butt;stroke-linejoin:miter;stroke-miterlimit:4;stroke-dasharray:none;stroke-opacity:1"
       d="M 47.757122,788.02794 186.02338,691.82001"
       id="path4403"
       inkscape:connector-curvature="0" />
    <path
       style="opacity:1;fill:#ffffff;fill-opacity:1;stroke:#000000;stroke-width:9.99959469;stroke-linecap:butt;stroke-linejoin:miter;stroke-miterlimit:4;stroke-dasharray:none;stroke-opacity:1"
       id="path4251-2-3-8"
       sodipodi:type="arc"
       sodipodi:cx="-186.02344"
       sodipodi:cy="691.81995"
       sodipodi:rx="45.000202"
       sodipodi:ry="45.000202"
       sodipodi:start="0"
       sodipodi:end="6.2826966"
       sodipodi:open="true"
       d="m -141.02324,691.81995 a 45.000202,45.000202 0 0 1 -44.9947,45.0002 45.000202,45.000202 0 0 1 -45.0057,-44.98921 45.000202,45.000202 0 0 1 44.98371,-45.01119 45.000202,45.000202 0 0 1 45.01669,44.9782"
       transform="scale(-1,1)" />
    <g
       transform="translate(-373.00444,0.08812745)"
       style="font-style:normal;font-variant:normal;font-weight:normal;font-stretch:normal;font-size:80px;line-height:100%;font-family:'Times New Roman';-inkscape-font-specification:'Times New Roman, Normal';text-align:center;letter-spacing:0px;word-spacing:0px;writing-mode:lr-tb;text-anchor:middle;fill:#000000;fill-opacity:1;stroke:none;stroke-width:1px;stroke-linecap:butt;stroke-linejoin:miter;stroke-opacity:1"
       id="text4332-2-1-7">
      <path
         inkscape:connector-curvature="0"
         d="m 585.37555,718.21619 -14.14063,0 -17.92968,-24.76563 q -1.99219,0.0781 -3.24219,0.0781 -0.50781,0 -1.09375,0 -0.58594,-0.0391 -1.21094,-0.0781 l 0,15.39063 q 0,5 1.09375,6.21093 1.48438,1.71875 4.45313,1.71875 l 2.07031,0 0,1.44532 -22.69531,0 0,-1.44532 1.99218,0 q 3.35938,0 4.80469,-2.1875 0.82031,-1.21093 0.82031,-5.74218 l 0,-34.21875 q 0,-5 -1.09375,-6.21094 -1.52343,-1.71875 -4.53125,-1.71875 l -1.99218,0 0,-1.44531 19.29687,0 q 8.4375,0 12.42188,1.25 4.02343,1.21093 6.79687,4.53125 2.8125,3.28125 2.8125,7.85156 0,4.88281 -3.20312,8.47656 -3.16407,3.59375 -9.84375,5.07813 l 10.9375,15.19531 q 3.75,5.23437 6.44531,6.95312 2.69531,1.71875 7.03125,2.1875 l 0,1.44532 z m -37.61719,-27.22657 q 0.74219,0 1.28906,0.0391 0.54688,0 0.89844,0 7.57813,0 11.40625,-3.28125 3.86719,-3.28125 3.86719,-8.35938 0,-4.96094 -3.125,-8.04687 -3.08594,-3.125 -8.20313,-3.125 -2.26562,0 -6.13281,0.74218 l 0,22.03125 z"
         id="path3381-0" />
    </g>
  </g>
</svg>
