<?xml version="1.0" encoding="UTF-8" standalone="no"?>
<!-- Created with Inkscape (http://www.inkscape.org/) -->

<svg
   xmlns:dc="http://purl.org/dc/elements/1.1/"
   xmlns:cc="http://creativecommons.org/ns#"
   xmlns:rdf="http://www.w3.org/1999/02/22-rdf-syntax-ns#"
   xmlns:svg="http://www.w3.org/2000/svg"
   xmlns="http://www.w3.org/2000/svg"
   xmlns:sodipodi="http://sodipodi.sourceforge.net/DTD/sodipodi-0.dtd"
   xmlns:inkscape="http://www.inkscape.org/namespaces/inkscape"
   width="210mm"
   height="297mm"
   viewBox="0 0 744.09448819 1052.3622047"
   id="svg2"
   version="1.1"
   inkscape:version="0.91 r13725"
   sodipodi:docname="preserving.svg">
  <defs
     id="defs4" />
  <sodipodi:namedview
     id="base"
     pagecolor="#ffffff"
     bordercolor="#666666"
     borderopacity="1.0"
     inkscape:pageopacity="0.0"
     inkscape:pageshadow="2"
     inkscape:zoom="0.50933034"
     inkscape:cx="372.04724"
     inkscape:cy="526.1811"
     inkscape:document-units="px"
     inkscape:current-layer="layer1"
     showgrid="false"
     inkscape:snap-bbox="true"
     inkscape:bbox-paths="true"
     inkscape:snap-bbox-edge-midpoints="false"
     inkscape:bbox-nodes="false"
     inkscape:snap-bbox-midpoints="true"
     inkscape:object-paths="true"
     inkscape:object-nodes="true"
     inkscape:snap-smooth-nodes="true"
     inkscape:snap-midpoints="true"
     inkscape:snap-intersection-paths="true"
     inkscape:snap-object-midpoints="true"
     inkscape:snap-center="true"
     inkscape:snap-text-baseline="true"
     inkscape:snap-page="true"
     showguides="false"
     inkscape:window-width="1366"
     inkscape:window-height="705"
     inkscape:window-x="-8"
     inkscape:window-y="-8"
     inkscape:window-maximized="1" />
  <metadata
     id="metadata7">
    <rdf:RDF>
      <cc:Work
         rdf:about="">
        <dc:format>image/svg+xml</dc:format>
        <dc:type
           rdf:resource="http://purl.org/dc/dcmitype/StillImage" />
        <dc:title />
      </cc:Work>
    </rdf:RDF>
  </metadata>
  <g
     inkscape:label="Layer 1"
     inkscape:groupmode="layer"
     id="layer1">
    <path
       style="opacity:1;fill:#ffffff;fill-opacity:1;stroke:#000000;stroke-width:10;stroke-linecap:butt;stroke-linejoin:miter;stroke-miterlimit:4;stroke-dasharray:none;stroke-opacity:1"
       d="M 327.16092,263.09055 186.98051,360.63037"
       id="path4253"
       inkscape:connector-curvature="0" />
    <path
       style="opacity:1;fill:#ffffff;fill-opacity:1;stroke:#000000;stroke-width:10;stroke-linecap:butt;stroke-linejoin:miter;stroke-miterlimit:4;stroke-dasharray:none;stroke-opacity:1"
       d="M 327.16092,458.17023 186.98051,360.63037"
       id="path4255"
       inkscape:connector-curvature="0" />
    <path
       style="opacity:1;fill:#ffffff;fill-opacity:1;stroke:#000000;stroke-width:10;stroke-linecap:butt;stroke-linejoin:miter;stroke-miterlimit:4;stroke-dasharray:none;stroke-opacity:1"
       d="m 46.800121,263.09055 c 0,0 -2e-5,195.07964 140.180389,97.53982"
       id="path4257"
       inkscape:connector-curvature="0" />
    <path
       style="opacity:1;fill:#ffffff;fill-opacity:1;stroke:#000000;stroke-width:0;stroke-linecap:butt;stroke-linejoin:miter;stroke-miterlimit:4;stroke-dasharray:none;stroke-opacity:1"
       id="path4261"
       sodipodi:type="arc"
       sodipodi:cx="71.18895"
       sodipodi:cy="360.63037"
       sodipodi:rx="14.999997"
       sodipodi:ry="14.999997"
       sodipodi:start="0"
       sodipodi:end="6.2826966"
       sodipodi:open="true"
       d="m 86.188947,360.63037 a 14.999997,14.999997 0 0 1 -14.998165,15 14.999997,14.999997 0 0 1 -15.001829,-14.99633 14.999997,14.999997 0 0 1 14.994499,-15.00367 14.999997,14.999997 0 0 1 15.005493,14.99267" />
    <path
       style="opacity:1;fill:none;fill-opacity:1;stroke:#000000;stroke-width:10;stroke-linecap:butt;stroke-linejoin:miter;stroke-miterlimit:4;stroke-dasharray:none;stroke-opacity:1"
       d="m 46.800121,458.17023 c 0,0 -2e-5,-195.07972 140.180389,-97.53986"
       id="path4259"
       inkscape:connector-curvature="0" />
    <path
       style="opacity:1;fill:#ffffff;fill-opacity:1;stroke:#000000;stroke-width:9.99959469;stroke-linecap:butt;stroke-linejoin:miter;stroke-miterlimit:4;stroke-dasharray:none;stroke-opacity:1"
       id="path4251"
       sodipodi:type="arc"
       sodipodi:cx="186.98051"
       sodipodi:cy="360.63037"
       sodipodi:rx="45.000202"
       sodipodi:ry="45.000202"
       sodipodi:start="0"
       sodipodi:end="6.2826966"
       sodipodi:open="true"
       d="m 231.98072,360.63037 a 45.000202,45.000202 0 0 1 -44.99471,45.0002 45.000202,45.000202 0 0 1 -45.0057,-44.9892 45.000202,45.000202 0 0 1 44.98371,-45.0112 45.000202,45.000202 0 0 1 45.01669,44.97821" />
    <path
       style="opacity:1;fill:#ffffff;fill-opacity:1;stroke:#000000;stroke-width:10;stroke-linecap:butt;stroke-linejoin:miter;stroke-miterlimit:4;stroke-dasharray:none;stroke-opacity:1"
       d="M 44.886055,789.27162 185.06646,691.73181"
       id="path4253-2"
       inkscape:connector-curvature="0" />
    <path
       style="opacity:1;fill:#ffffff;fill-opacity:1;stroke:#000000;stroke-width:10;stroke-linecap:butt;stroke-linejoin:miter;stroke-miterlimit:4;stroke-dasharray:none;stroke-opacity:1"
       d="M 44.886055,594.19195 185.06646,691.73181"
       id="path4255-2"
       inkscape:connector-curvature="0" />
    <path
       style="opacity:1;fill:#ffffff;fill-opacity:1;stroke:#000000;stroke-width:10;stroke-linecap:butt;stroke-linejoin:miter;stroke-miterlimit:4;stroke-dasharray:none;stroke-opacity:1"
       d="m 325.24685,789.27162 c 0,0 2e-5,-195.07963 -140.18039,-97.53981"
       id="path4257-9"
       inkscape:connector-curvature="0" />
    <path
       style="opacity:1;fill:#ffffff;fill-opacity:1;stroke:#000000;stroke-width:0;stroke-linecap:butt;stroke-linejoin:miter;stroke-miterlimit:4;stroke-dasharray:none;stroke-opacity:1"
       id="path4261-6"
       sodipodi:type="arc"
       sodipodi:cx="-300.85803"
       sodipodi:cy="-691.73181"
       sodipodi:rx="14.999997"
       sodipodi:ry="14.999997"
       sodipodi:start="0"
       sodipodi:end="6.2826966"
       sodipodi:open="true"
       d="m -285.85804,-691.73181 a 14.999997,14.999997 0 0 1 -14.99816,15 14.999997,14.999997 0 0 1 -15.00183,-14.99634 14.999997,14.999997 0 0 1 14.9945,-15.00366 14.999997,14.999997 0 0 1 15.00549,14.99267"
       transform="scale(-1,-1)" />
    <path
       style="opacity:1;fill:none;fill-opacity:1;stroke:#000000;stroke-width:10;stroke-linecap:butt;stroke-linejoin:miter;stroke-miterlimit:4;stroke-dasharray:none;stroke-opacity:1"
       d="m 325.24685,594.19195 c 0,0 2e-5,195.07971 -140.18039,97.53986"
       id="path4259-6"
       inkscape:connector-curvature="0" />
    <path
       style="opacity:1;fill:#ffffff;fill-opacity:1;stroke:#000000;stroke-width:9.99959469;stroke-linecap:butt;stroke-linejoin:miter;stroke-miterlimit:4;stroke-dasharray:none;stroke-opacity:1"
       id="path4251-0"
       sodipodi:type="arc"
       sodipodi:cx="-185.06647"
       sodipodi:cy="-691.73181"
       sodipodi:rx="45.000202"
       sodipodi:ry="45.000202"
       sodipodi:start="0"
       sodipodi:end="6.2826966"
       sodipodi:open="true"
       d="m -140.06627,-691.73181 a 45.000202,45.000202 0 0 1 -44.9947,45.0002 45.000202,45.000202 0 0 1 -45.0057,-44.98921 45.000202,45.000202 0 0 1 44.98371,-45.01119 45.000202,45.000202 0 0 1 45.01669,44.97821"
       transform="scale(-1,-1)" />
    <g
       style="font-style:normal;font-variant:normal;font-weight:normal;font-stretch:normal;font-size:80px;line-height:100%;font-family:'Times New Roman';-inkscape-font-specification:'Times New Roman, Normal';text-align:center;letter-spacing:0px;word-spacing:0px;writing-mode:lr-tb;text-anchor:middle;fill:#000000;fill-opacity:1;stroke:none;stroke-width:1px;stroke-linecap:butt;stroke-linejoin:miter;stroke-opacity:1"
       id="text4332">
      <path
         d="m 213.32817,387.11475 -14.14062,0 -17.92969,-24.76563 q -1.99219,0.0781 -3.24219,0.0781 -0.50781,0 -1.09375,0 -0.58594,-0.0391 -1.21094,-0.0781 l 0,15.39063 q 0,5 1.09375,6.21093 1.48438,1.71875 4.45313,1.71875 l 2.07031,0 0,1.44532 -22.69531,0 0,-1.44532 1.99219,0 q 3.35937,0 4.80468,-2.1875 0.82032,-1.21093 0.82032,-5.74218 l 0,-34.21875 q 0,-5 -1.09375,-6.21094 -1.52344,-1.71875 -4.53125,-1.71875 l -1.99219,0 0,-1.44531 19.29687,0 q 8.4375,0 12.42188,1.25 4.02344,1.21093 6.79687,4.53125 2.8125,3.28125 2.8125,7.85156 0,4.88281 -3.20312,8.47656 -3.16406,3.59375 -9.84375,5.07813 l 10.9375,15.19531 q 3.75,5.23437 6.44531,6.95312 2.69531,1.71875 7.03125,2.1875 l 0,1.44532 z m -37.61719,-27.22657 q 0.74219,0 1.28907,0.0391 0.54687,0 0.89843,0 7.57813,0 11.40625,-3.28125 3.86719,-3.28125 3.86719,-8.35938 0,-4.96094 -3.125,-8.04687 -3.08594,-3.125 -8.20312,-3.125 -2.26563,0 -6.13282,0.74218 l 0,22.03125 z"
         style=""
         id="path3387" />
    </g>
    <g
       transform="scale(1,-1)"
       style="font-style:normal;font-variant:normal;font-weight:normal;font-stretch:normal;font-size:80px;line-height:100%;font-family:'Times New Roman';-inkscape-font-specification:'Times New Roman, Normal';text-align:center;letter-spacing:0px;word-spacing:0px;writing-mode:lr-tb;text-anchor:middle;fill:#000000;fill-opacity:1;stroke:none;stroke-width:1px;stroke-linecap:butt;stroke-linejoin:miter;stroke-opacity:1"
       id="text4332-8">
      <path
         d="m 211.41412,-665.24744 -14.14062,0 -17.92969,-24.76562 q -1.99219,0.0781 -3.24219,0.0781 -0.50781,0 -1.09375,0 -0.58593,-0.0391 -1.21093,-0.0781 l 0,15.39062 q 0,5 1.09375,6.21094 1.48437,1.71875 4.45312,1.71875 l 2.07031,0 0,1.44531 -22.69531,0 0,-1.44531 1.99219,0 q 3.35937,0 4.80469,-2.1875 0.82031,-1.21094 0.82031,-5.74219 l 0,-34.21875 q 0,-5 -1.09375,-6.21093 -1.52344,-1.71875 -4.53125,-1.71875 l -1.99219,0 0,-1.44532 19.29688,0 q 8.4375,0 12.42187,1.25 4.02344,1.21094 6.79688,4.53125 2.8125,3.28125 2.8125,7.85157 0,4.88281 -3.20313,8.47656 -3.16406,3.59375 -9.84375,5.07812 l 10.9375,15.19532 q 3.75,5.23437 6.44531,6.95312 2.69532,1.71875 7.03125,2.1875 l 0,1.44531 z M 173.79694,-692.474 q 0.74218,0 1.28906,0.0391 0.54687,0 0.89844,0 7.57812,0 11.40625,-3.28125 3.86718,-3.28125 3.86718,-8.35937 0,-4.96094 -3.125,-8.04688 -3.08593,-3.125 -8.20312,-3.125 -2.26563,0 -6.13281,0.74219 l 0,22.03125 z"
         style=""
         id="path3384" />
    </g>
    <g
       transform="matrix(0,-1,1,0,60.093769,-1.3950195e-5)"
       style="font-style:normal;font-variant:normal;font-weight:normal;font-stretch:normal;font-size:80px;line-height:100%;font-family:'Times New Roman';-inkscape-font-specification:'Times New Roman, Normal';text-align:center;letter-spacing:0px;word-spacing:0px;writing-mode:lr-tb;text-anchor:middle;fill:#000000;fill-opacity:1;stroke:none;stroke-width:1px;stroke-linecap:butt;stroke-linejoin:miter;stroke-opacity:1"
       id="text4843-4-7">
      <path
         inkscape:connector-curvature="0"
         d="m -489.28656,123.15628 0,1.75781 q -3.67188,1.67969 -7.22656,4.53125 -3.55469,2.85157 -8.63282,8.63282 l -3.125,0 q 2.69532,-6.71875 7.57813,-12.14844 l -50.97656,0 q 4.88281,5.42969 7.57812,12.14844 l -3.125,0 q -5.07812,-5.78125 -8.63281,-8.63282 -3.55469,-2.85156 -7.22656,-4.53125 l 0,-1.75781 q 3.67187,-1.71875 7.22656,-4.53125 3.55469,-2.85156 8.63281,-8.67187 l 3.125,0 q -2.69531,6.71875 -7.57812,12.14843 l 50.97656,0 q -4.88281,-5.42968 -7.57813,-12.14843 l 3.125,0 q 5.07813,5.82031 8.63282,8.67187 3.55468,2.8125 7.22656,4.53125 z"
         id="path4928-3" />
    </g>
    <g
       transform="matrix(0,-1,1,0,434.0552,1.3085939e-6)"
       style="font-style:normal;font-variant:normal;font-weight:normal;font-stretch:normal;font-size:80px;line-height:100%;font-family:'Times New Roman';-inkscape-font-specification:'Times New Roman, Normal';text-align:center;letter-spacing:0px;word-spacing:0px;writing-mode:lr-tb;text-anchor:middle;fill:#000000;fill-opacity:1;stroke:none;stroke-width:1px;stroke-linecap:butt;stroke-linejoin:miter;stroke-opacity:1"
       id="text4843-4-7-9">
      <path
         inkscape:connector-curvature="0"
         d="m -489.28656,123.15628 0,1.75781 q -3.67188,1.67969 -7.22656,4.53125 -3.55469,2.85157 -8.63282,8.63282 l -3.125,0 q 2.69532,-6.71875 7.57813,-12.14844 l -50.97656,0 q 4.88281,5.42969 7.57812,12.14844 l -3.125,0 q -5.07812,-5.78125 -8.63281,-8.63282 -3.55469,-2.85156 -7.22656,-4.53125 l 0,-1.75781 q 3.67187,-1.71875 7.22656,-4.53125 3.55469,-2.85156 8.63281,-8.67187 l 3.125,0 q -2.69531,6.71875 -7.57812,12.14843 l 50.97656,0 q -4.88281,-5.42968 -7.57813,-12.14843 l 3.125,0 q 5.07813,5.82031 8.63282,8.67187 3.55468,2.8125 7.22656,4.53125 z"
         id="path4928-3-2" />
    </g>
    <path
       style="opacity:1;fill:#ffffff;fill-opacity:1;stroke:#000000;stroke-width:10;stroke-linecap:butt;stroke-linejoin:miter;stroke-miterlimit:4;stroke-dasharray:none;stroke-opacity:1"
       d="M 420.76157,458.17023 701.12238,263.09055"
       id="path4516"
       inkscape:connector-curvature="0" />
    <path
       style="opacity:1;fill:#ffffff;fill-opacity:1;stroke:#000000;stroke-width:0;stroke-linecap:butt;stroke-linejoin:miter;stroke-miterlimit:4;stroke-dasharray:none;stroke-opacity:1"
       id="path4528"
       sodipodi:type="arc"
       sodipodi:cx="497.23322"
       sodipodi:cy="404.95999"
       sodipodi:rx="14.999997"
       sodipodi:ry="14.999997"
       sodipodi:start="0"
       sodipodi:end="6.2826966"
       sodipodi:open="true"
       d="m 512.23321,404.95999 a 14.999997,14.999997 0 0 1 -14.99816,15 14.999997,14.999997 0 0 1 -15.00183,-14.99633 14.999997,14.999997 0 0 1 14.9945,-15.00366 14.999997,14.999997 0 0 1 15.00549,14.99266" />
    <path
       style="opacity:1;fill:#ffffff;fill-opacity:1;stroke:#000000;stroke-width:10;stroke-linecap:butt;stroke-linejoin:miter;stroke-miterlimit:4;stroke-dasharray:none;stroke-opacity:1"
       d="M 420.76157,263.09055 701.12238,458.17023"
       id="path4514"
       inkscape:connector-curvature="0" />
    <path
       style="opacity:1;fill:#ffffff;fill-opacity:1;stroke:#000000;stroke-width:0;stroke-linecap:butt;stroke-linejoin:miter;stroke-miterlimit:4;stroke-dasharray:none;stroke-opacity:1"
       id="path4528-9"
       sodipodi:type="arc"
       sodipodi:cx="497.23322"
       sodipodi:cy="-316.30078"
       sodipodi:rx="14.999997"
       sodipodi:ry="14.999997"
       sodipodi:start="0"
       sodipodi:end="6.2826966"
       sodipodi:open="true"
       d="m 512.23321,-316.30078 a 14.999997,14.999997 0 0 1 -14.99816,15 14.999997,14.999997 0 0 1 -15.00183,-14.99634 14.999997,14.999997 0 0 1 14.9945,-15.00366 14.999997,14.999997 0 0 1 15.00549,14.99267"
       transform="scale(1,-1)" />
    <path
       style="opacity:1;fill:none;fill-opacity:1;stroke:#000000;stroke-width:10;stroke-linecap:butt;stroke-linejoin:miter;stroke-miterlimit:4;stroke-dasharray:none;stroke-opacity:1"
       d="m 560.94197,360.63039 c 0,-97.53984 -70.09021,-97.53984 -70.09021,0 0,97.53984 70.09021,97.53985 70.09021,0"
       id="path4526"
       inkscape:connector-curvature="0" />
    <path
       style="opacity:1;fill:#ffffff;fill-opacity:1;stroke:#000000;stroke-width:9.99959469;stroke-linecap:butt;stroke-linejoin:miter;stroke-miterlimit:4;stroke-dasharray:none;stroke-opacity:1"
       id="path4251-2"
       sodipodi:type="arc"
       sodipodi:cx="560.94196"
       sodipodi:cy="360.63034"
       sodipodi:rx="45.000202"
       sodipodi:ry="45.000202"
       sodipodi:start="0"
       sodipodi:end="6.2826966"
       sodipodi:open="true"
       d="m 605.94216,360.63034 a 45.000202,45.000202 0 0 1 -44.99471,45.0002 45.000202,45.000202 0 0 1 -45.0057,-44.9892 45.000202,45.000202 0 0 1 44.98371,-45.0112 45.000202,45.000202 0 0 1 45.01669,44.97821" />
    <g
       style="font-style:normal;font-variant:normal;font-weight:normal;font-stretch:normal;font-size:80px;line-height:100%;font-family:'Times New Roman';-inkscape-font-specification:'Times New Roman, Normal';text-align:center;letter-spacing:0px;word-spacing:0px;writing-mode:lr-tb;text-anchor:middle;fill:#000000;fill-opacity:1;stroke:none;stroke-width:1px;stroke-linecap:butt;stroke-linejoin:miter;stroke-opacity:1"
       id="text4332-2">
      <path
         d="m 587.28961,387.11472 -14.14062,0 -17.92969,-24.76563 q -1.99219,0.0781 -3.24219,0.0781 -0.50781,0 -1.09375,0 -0.58594,-0.0391 -1.21094,-0.0781 l 0,15.39063 q 0,5 1.09375,6.21093 1.48438,1.71875 4.45313,1.71875 l 2.07031,0 0,1.44532 -22.69531,0 0,-1.44532 1.99219,0 q 3.35937,0 4.80468,-2.1875 0.82032,-1.21093 0.82032,-5.74218 l 0,-34.21875 q 0,-5 -1.09375,-6.21094 -1.52344,-1.71875 -4.53125,-1.71875 l -1.99219,0 0,-1.44531 19.29687,0 q 8.4375,0 12.42188,1.25 4.02344,1.21093 6.79687,4.53125 2.8125,3.28125 2.8125,7.85156 0,4.88281 -3.20312,8.47656 -3.16406,3.59375 -9.84375,5.07813 l 10.9375,15.19531 q 3.75,5.23437 6.44531,6.95312 2.69531,1.71875 7.03125,2.1875 l 0,1.44532 z m -37.61719,-27.22657 q 0.74219,0 1.28907,0.0391 0.54687,0 0.89843,0 7.57813,0 11.40625,-3.28125 3.86719,-3.28125 3.86719,-8.35938 0,-4.96094 -3.125,-8.04687 -3.08594,-3.125 -8.20312,-3.125 -2.26563,0 -6.13282,0.74218 l 0,22.03125 z"
         style=""
         id="path3378" />
    </g>
    <path
       style="opacity:1;fill:#ffffff;fill-opacity:1;stroke:#000000;stroke-width:10;stroke-linecap:butt;stroke-linejoin:miter;stroke-miterlimit:4;stroke-dasharray:none;stroke-opacity:1"
       d="M 699.20823,789.27171 418.84743,594.19203"
       id="path4516-6"
       inkscape:connector-curvature="0" />
    <path
       style="opacity:1;fill:#ffffff;fill-opacity:1;stroke:#000000;stroke-width:0;stroke-linecap:butt;stroke-linejoin:miter;stroke-miterlimit:4;stroke-dasharray:none;stroke-opacity:1"
       id="path4528-5"
       sodipodi:type="arc"
       sodipodi:cx="-622.73651"
       sodipodi:cy="736.06146"
       sodipodi:rx="14.999997"
       sodipodi:ry="14.999997"
       sodipodi:start="0"
       sodipodi:end="6.2826966"
       sodipodi:open="true"
       d="m -607.73651,736.06146 a 14.999997,14.999997 0 0 1 -14.99817,15 14.999997,14.999997 0 0 1 -15.00183,-14.99633 14.999997,14.999997 0 0 1 14.9945,-15.00366 14.999997,14.999997 0 0 1 15.00549,14.99266"
       transform="scale(-1,1)" />
    <path
       style="opacity:1;fill:#ffffff;fill-opacity:1;stroke:#000000;stroke-width:10;stroke-linecap:butt;stroke-linejoin:miter;stroke-miterlimit:4;stroke-dasharray:none;stroke-opacity:1"
       d="M 699.20823,594.19203 418.84743,789.27172"
       id="path4514-2"
       inkscape:connector-curvature="0" />
    <path
       style="opacity:1;fill:#ffffff;fill-opacity:1;stroke:#000000;stroke-width:0;stroke-linecap:butt;stroke-linejoin:miter;stroke-miterlimit:4;stroke-dasharray:none;stroke-opacity:1"
       id="path4528-9-8"
       sodipodi:type="arc"
       sodipodi:cx="-622.73651"
       sodipodi:cy="-647.40228"
       sodipodi:rx="14.999997"
       sodipodi:ry="14.999997"
       sodipodi:start="0"
       sodipodi:end="6.2826966"
       sodipodi:open="true"
       d="m -607.73651,-647.40228 a 14.999997,14.999997 0 0 1 -14.99817,14.99999 14.999997,14.999997 0 0 1 -15.00183,-14.99633 14.999997,14.999997 0 0 1 14.9945,-15.00366 14.999997,14.999997 0 0 1 15.00549,14.99267"
       transform="scale(-1,-1)" />
    <path
       style="opacity:1;fill:none;fill-opacity:1;stroke:#000000;stroke-width:10;stroke-linecap:butt;stroke-linejoin:miter;stroke-miterlimit:4;stroke-dasharray:none;stroke-opacity:1"
       d="m 559.02782,691.73188 c 0,-97.53985 70.09021,-97.53985 70.09021,0 0,97.53984 -70.09021,97.53985 -70.09021,0"
       id="path4526-7"
       inkscape:connector-curvature="0" />
    <path
       style="opacity:1;fill:#ffffff;fill-opacity:1;stroke:#000000;stroke-width:9.99959469;stroke-linecap:butt;stroke-linejoin:miter;stroke-miterlimit:4;stroke-dasharray:none;stroke-opacity:1"
       id="path4251-2-3"
       sodipodi:type="arc"
       sodipodi:cx="-559.02789"
       sodipodi:cy="691.73181"
       sodipodi:rx="45.000202"
       sodipodi:ry="45.000202"
       sodipodi:start="0"
       sodipodi:end="6.2826966"
       sodipodi:open="true"
       d="m -514.02769,691.73181 a 45.000202,45.000202 0 0 1 -44.99471,45.0002 45.000202,45.000202 0 0 1 -45.00569,-44.9892 45.000202,45.000202 0 0 1 44.9837,-45.0112 45.000202,45.000202 0 0 1 45.01669,44.97821"
       transform="scale(-1,1)" />
    <g
       style="font-style:normal;font-variant:normal;font-weight:normal;font-stretch:normal;font-size:80px;line-height:100%;font-family:'Times New Roman';-inkscape-font-specification:'Times New Roman, Normal';text-align:center;letter-spacing:0px;word-spacing:0px;writing-mode:lr-tb;text-anchor:middle;fill:#000000;fill-opacity:1;stroke:none;stroke-width:1px;stroke-linecap:butt;stroke-linejoin:miter;stroke-opacity:1"
       id="text4332-2-1">
      <path
         d="m 585.37555,718.21619 -14.14063,0 -17.92968,-24.76563 q -1.99219,0.0781 -3.24219,0.0781 -0.50781,0 -1.09375,0 -0.58594,-0.0391 -1.21094,-0.0781 l 0,15.39063 q 0,5 1.09375,6.21093 1.48438,1.71875 4.45313,1.71875 l 2.07031,0 0,1.44532 -22.69531,0 0,-1.44532 1.99218,0 q 3.35938,0 4.80469,-2.1875 0.82031,-1.21093 0.82031,-5.74218 l 0,-34.21875 q 0,-5 -1.09375,-6.21094 -1.52343,-1.71875 -4.53125,-1.71875 l -1.99218,0 0,-1.44531 19.29687,0 q 8.4375,0 12.42188,1.25 4.02343,1.21093 6.79687,4.53125 2.8125,3.28125 2.8125,7.85156 0,4.88281 -3.20312,8.47656 -3.16407,3.59375 -9.84375,5.07813 l 10.9375,15.19531 q 3.75,5.23437 6.44531,6.95312 2.69531,1.71875 7.03125,2.1875 l 0,1.44532 z m -37.61719,-27.22657 q 0.74219,0 1.28906,0.0391 0.54688,0 0.89844,0 7.57813,0 11.40625,-3.28125 3.86719,-3.28125 3.86719,-8.35938 0,-4.96094 -3.125,-8.04687 -3.08594,-3.125 -8.20313,-3.125 -2.26562,0 -6.13281,0.74218 l 0,22.03125 z"
         style=""
         id="path3381" />
    </g>
  </g>
</svg>
