<?xml version="1.0" encoding="UTF-8" standalone="no"?>
<!-- Created with Inkscape (http://www.inkscape.org/) -->

<svg
   xmlns:dc="http://purl.org/dc/elements/1.1/"
   xmlns:cc="http://creativecommons.org/ns#"
   xmlns:rdf="http://www.w3.org/1999/02/22-rdf-syntax-ns#"
   xmlns:svg="http://www.w3.org/2000/svg"
   xmlns="http://www.w3.org/2000/svg"
   xmlns:sodipodi="http://sodipodi.sourceforge.net/DTD/sodipodi-0.dtd"
   xmlns:inkscape="http://www.inkscape.org/namespaces/inkscape"
   width="210mm"
   height="297mm"
   viewBox="0 0 744.09448819 1052.3622047"
   id="svg2"
   version="1.1"
   inkscape:version="0.91 r13725"
   sodipodi:docname="reidemeister.svg">
  <defs
     id="defs4" />
  <sodipodi:namedview
     id="base"
     pagecolor="#ffffff"
     bordercolor="#666666"
     borderopacity="1.0"
     inkscape:pageopacity="0.0"
     inkscape:pageshadow="2"
     inkscape:zoom="0.50933034"
     inkscape:cx="372.04724"
     inkscape:cy="526.1811"
     inkscape:document-units="px"
     inkscape:current-layer="layer1"
     showgrid="false"
     inkscape:snap-bbox="true"
     inkscape:bbox-paths="true"
     inkscape:snap-bbox-edge-midpoints="false"
     inkscape:bbox-nodes="false"
     inkscape:snap-bbox-midpoints="true"
     inkscape:object-paths="true"
     inkscape:object-nodes="true"
     inkscape:snap-smooth-nodes="true"
     inkscape:snap-midpoints="true"
     inkscape:snap-intersection-paths="true"
     inkscape:snap-object-midpoints="true"
     inkscape:snap-center="true"
     inkscape:snap-text-baseline="true"
     inkscape:snap-page="true"
     showguides="false"
     inkscape:window-width="1366"
     inkscape:window-height="705"
     inkscape:window-x="-8"
     inkscape:window-y="-8"
     inkscape:window-maximized="1" />
  <metadata
     id="metadata7">
    <rdf:RDF>
      <cc:Work
         rdf:about="">
        <dc:format>image/svg+xml</dc:format>
        <dc:type
           rdf:resource="http://purl.org/dc/dcmitype/StillImage" />
        <dc:title></dc:title>
      </cc:Work>
    </rdf:RDF>
  </metadata>
  <g
     inkscape:label="Layer 1"
     inkscape:groupmode="layer"
     id="layer1">
    <path
       style="opacity:1;fill:#ffffff;fill-opacity:1;stroke:#000000;stroke-width:10;stroke-linecap:butt;stroke-linejoin:miter;stroke-miterlimit:4;stroke-dasharray:none;stroke-opacity:1"
       d="m 60.871567,418.6358 121.743133,0"
       id="path3381"
       inkscape:connector-curvature="0" />
    <path
       style="opacity:1;fill:#ffffff;fill-opacity:1;stroke:#000000;stroke-width:10;stroke-linecap:butt;stroke-linejoin:miter;stroke-miterlimit:4;stroke-dasharray:none;stroke-opacity:1"
       d="m 60.871567,674.8925 c 121.736133,0 121.736133,-99.77588 60.868063,-99.77588 -60.868063,0 -57.185357,98.69322 60.86807,99.77588"
       id="path3387"
       inkscape:connector-curvature="0" />
    <path
       style="opacity:1;fill:#ffffff;fill-opacity:1;stroke:#000000;stroke-width:0;stroke-linecap:butt;stroke-linejoin:miter;stroke-miterlimit:4;stroke-dasharray:none;stroke-opacity:1"
       id="path4193"
       sodipodi:type="arc"
       sodipodi:cx="122.92844"
       sodipodi:cy="663.12585"
       sodipodi:rx="24.999994"
       sodipodi:ry="24.999996"
       sodipodi:start="0"
       sodipodi:end="6.2826966"
       sodipodi:open="true"
       d="m 147.92843,663.12585 a 24.999994,24.999996 0 0 1 -24.99694,25 24.999994,24.999996 0 0 1 -25.003047,-24.99389 24.999994,24.999996 0 0 1 24.990827,-25.0061 24.999994,24.999996 0 0 1 25.00916,24.98778" />
    <path
       style="opacity:1;fill:none;fill-opacity:1;stroke:#000000;stroke-width:10;stroke-linecap:butt;stroke-linejoin:miter;stroke-miterlimit:4;stroke-dasharray:none;stroke-opacity:1"
       d="m 60.871955,674.8925 c 121.735475,0 121.735745,-99.77588 60.867675,-99.77588"
       id="path4191"
       inkscape:connector-curvature="0" />
    <path
       style="opacity:1;fill:#ffffff;fill-opacity:1;stroke:#000000;stroke-width:10;stroke-linecap:butt;stroke-linejoin:miter;stroke-miterlimit:4;stroke-dasharray:none;stroke-opacity:1"
       d="m 317.89374,368.42175 c 55.21405,55.21405 110.4281,0 110.4281,0"
       id="path4471"
       inkscape:connector-curvature="0" />
    <path
       style="opacity:1;fill:#ffffff;fill-opacity:1;stroke:#000000;stroke-width:10;stroke-linecap:butt;stroke-linejoin:miter;stroke-miterlimit:4;stroke-dasharray:none;stroke-opacity:1"
       d="m 428.32184,478.84985 c -55.21405,-55.21404 -110.4281,0 -110.4281,0"
       id="path4473"
       inkscape:connector-curvature="0" />
    <path
       style="opacity:1;fill:#ffffff;fill-opacity:1;stroke:#000000;stroke-width:10;stroke-linecap:butt;stroke-linejoin:miter;stroke-miterlimit:4;stroke-dasharray:none;stroke-opacity:1"
       d="m 314.92416,570.49988 c 56.01236,167.05096 112.02472,0 112.02472,0"
       id="path4550"
       inkscape:connector-curvature="0" />
    <path
       style="opacity:1;fill:#ffffff;fill-opacity:1;stroke:#000000;stroke-width:0;stroke-linecap:butt;stroke-linejoin:miter;stroke-miterlimit:4;stroke-dasharray:none;stroke-opacity:1"
       id="path4193-4"
       sodipodi:type="arc"
       sodipodi:cx="342.3045"
       sodipodi:cy="628.03162"
       sodipodi:rx="14.999997"
       sodipodi:ry="14.999997"
       sodipodi:start="0"
       sodipodi:end="6.2826966"
       sodipodi:open="true"
       d="m 357.3045,628.03162 a 14.999997,14.999997 0 0 1 -14.99816,14.99999 14.999997,14.999997 0 0 1 -15.00183,-14.99633 14.999997,14.999997 0 0 1 14.9945,-15.00366 14.999997,14.999997 0 0 1 15.00549,14.99267" />
    <path
       style="opacity:1;fill:#ffffff;fill-opacity:1;stroke:#000000;stroke-width:0;stroke-linecap:butt;stroke-linejoin:miter;stroke-miterlimit:4;stroke-dasharray:none;stroke-opacity:1"
       id="path4193-4-3"
       sodipodi:type="arc"
       sodipodi:cx="399.56851"
       sodipodi:cy="624.33545"
       sodipodi:rx="14.999997"
       sodipodi:ry="14.999997"
       sodipodi:start="0"
       sodipodi:end="6.2826966"
       sodipodi:open="true"
       d="m 414.56851,624.33545 a 14.999997,14.999997 0 0 1 -14.99817,15 14.999997,14.999997 0 0 1 -15.00182,-14.99634 14.999997,14.999997 0 0 1 14.99449,-15.00366 14.999997,14.999997 0 0 1 15.0055,14.99267" />
    <path
       style="opacity:1;fill:none;fill-opacity:1;stroke:#000000;stroke-width:10;stroke-linecap:butt;stroke-linejoin:miter;stroke-miterlimit:4;stroke-dasharray:none;stroke-opacity:1"
       d="m 426.94888,681.86719 c -56.01236,-167.05097 -112.02472,0 -112.02472,0"
       id="path4567"
       inkscape:connector-curvature="0" />
    <path
       style="opacity:1;fill:none;fill-opacity:1;stroke:#000000;stroke-width:10;stroke-linecap:butt;stroke-linejoin:miter;stroke-miterlimit:4;stroke-dasharray:none;stroke-opacity:1"
       d="m 563.50159,396.02878 110.4281,0"
       id="path4668"
       inkscape:connector-curvature="0" />
    <path
       style="opacity:1;fill:#ffffff;fill-opacity:1;stroke:#000000;stroke-width:0;stroke-linecap:butt;stroke-linejoin:miter;stroke-miterlimit:4;stroke-dasharray:none;stroke-opacity:1"
       id="path4775-1"
       sodipodi:type="arc"
       sodipodi:cx="653.22443"
       sodipodi:cy="396.02878"
       sodipodi:rx="14.999994"
       sodipodi:ry="14.999994"
       sodipodi:start="0"
       sodipodi:end="6.2826966"
       sodipodi:open="true"
       d="m 668.22442,396.02878 a 14.999994,14.999994 0 0 1 -14.99816,14.99999 14.999994,14.999994 0 0 1 -15.00183,-14.99633 14.999994,14.999994 0 0 1 14.9945,-15.00366 14.999994,14.999994 0 0 1 15.00549,14.99267" />
    <path
       style="opacity:1;fill:#ffffff;fill-opacity:1;stroke:#000000;stroke-width:0;stroke-linecap:butt;stroke-linejoin:miter;stroke-miterlimit:4;stroke-dasharray:none;stroke-opacity:1"
       id="path4775"
       sodipodi:type="arc"
       sodipodi:cx="584.20685"
       sodipodi:cy="396.02878"
       sodipodi:rx="14.999994"
       sodipodi:ry="14.999994"
       sodipodi:start="0"
       sodipodi:end="6.2826966"
       sodipodi:open="true"
       d="m 599.20684,396.02878 a 14.999994,14.999994 0 0 1 -14.99816,14.99999 14.999994,14.999994 0 0 1 -15.00183,-14.99633 14.999994,14.999994 0 0 1 14.9945,-15.00366 14.999994,14.999994 0 0 1 15.00549,14.99267" />
    <path
       style="opacity:1;fill:#ffffff;fill-opacity:1;stroke:#000000;stroke-width:10;stroke-linecap:butt;stroke-linejoin:miter;stroke-miterlimit:4;stroke-dasharray:none;stroke-opacity:1"
       d="m 563.50159,368.42175 82.82107,110.4281"
       id="path4771"
       inkscape:connector-curvature="0" />
    <path
       style="opacity:1;fill:#ffffff;fill-opacity:1;stroke:#000000;stroke-width:0;stroke-linecap:butt;stroke-linejoin:miter;stroke-miterlimit:4;stroke-dasharray:none;stroke-opacity:1"
       id="path4775-2"
       sodipodi:type="arc"
       sodipodi:cx="618.71564"
       sodipodi:cy="442.0405"
       sodipodi:rx="12.499994"
       sodipodi:ry="12.499994"
       sodipodi:start="0"
       sodipodi:end="6.2826966"
       sodipodi:open="true"
       d="m 631.21563,442.0405 a 12.499994,12.499994 0 0 1 -12.49847,12.49999 12.499994,12.499994 0 0 1 -12.50152,-12.49694 12.499994,12.499994 0 0 1 12.49542,-12.50305 12.499994,12.499994 0 0 1 12.50457,12.49389" />
    <path
       style="opacity:1;fill:#ffffff;fill-opacity:1;stroke:#000000;stroke-width:10;stroke-linecap:butt;stroke-linejoin:miter;stroke-miterlimit:4;stroke-dasharray:none;stroke-opacity:1"
       d="m 673.92969,368.42175 -82.82108,110.4281"
       id="path4773"
       inkscape:connector-curvature="0" />
    <path
       style="opacity:1;fill:none;fill-opacity:1;stroke:#000000;stroke-width:10;stroke-linecap:butt;stroke-linejoin:miter;stroke-miterlimit:4;stroke-dasharray:none;stroke-opacity:1"
       d="m 559.53198,653.79055 110.4281,0"
       id="path4668-4"
       inkscape:connector-curvature="0" />
    <path
       style="opacity:1;fill:#ffffff;fill-opacity:1;stroke:#000000;stroke-width:0;stroke-linecap:butt;stroke-linejoin:miter;stroke-miterlimit:4;stroke-dasharray:none;stroke-opacity:1"
       id="path4775-1-8"
       sodipodi:type="arc"
       sodipodi:cx="649.25482"
       sodipodi:cy="-653.79053"
       sodipodi:rx="14.999994"
       sodipodi:ry="14.999994"
       sodipodi:start="0"
       sodipodi:end="6.2826966"
       sodipodi:open="true"
       d="m 664.25482,-653.79053 a 14.999994,14.999994 0 0 1 -14.99817,15 14.999994,14.999994 0 0 1 -15.00182,-14.99633 14.999994,14.999994 0 0 1 14.99449,-15.00366 14.999994,14.999994 0 0 1 15.00549,14.99266"
       transform="scale(1,-1)" />
    <path
       style="opacity:1;fill:#ffffff;fill-opacity:1;stroke:#000000;stroke-width:0;stroke-linecap:butt;stroke-linejoin:miter;stroke-miterlimit:4;stroke-dasharray:none;stroke-opacity:1"
       id="path4775-24"
       sodipodi:type="arc"
       sodipodi:cx="580.23724"
       sodipodi:cy="-653.79053"
       sodipodi:rx="14.999994"
       sodipodi:ry="14.999994"
       sodipodi:start="0"
       sodipodi:end="6.2826966"
       sodipodi:open="true"
       d="m 595.23724,-653.79053 a 14.999994,14.999994 0 0 1 -14.99816,15 14.999994,14.999994 0 0 1 -15.00183,-14.99633 14.999994,14.999994 0 0 1 14.9945,-15.00366 14.999994,14.999994 0 0 1 15.00549,14.99266"
       transform="scale(1,-1)" />
    <path
       style="opacity:1;fill:#ffffff;fill-opacity:1;stroke:#000000;stroke-width:10;stroke-linecap:butt;stroke-linejoin:miter;stroke-miterlimit:4;stroke-dasharray:none;stroke-opacity:1"
       d="M 669.96008,681.39758 587.139,570.96948"
       id="path4773-4"
       inkscape:connector-curvature="0" />
    <path
       style="opacity:1;fill:#ffffff;fill-opacity:1;stroke:#000000;stroke-width:0;stroke-linecap:butt;stroke-linejoin:miter;stroke-miterlimit:4;stroke-dasharray:none;stroke-opacity:1"
       id="path4775-2-9"
       sodipodi:type="arc"
       sodipodi:cx="614.74603"
       sodipodi:cy="-607.77881"
       sodipodi:rx="12.499994"
       sodipodi:ry="12.499994"
       sodipodi:start="0"
       sodipodi:end="6.2826966"
       sodipodi:open="true"
       d="m 627.24603,-607.77881 a 12.499994,12.499994 0 0 1 -12.49847,12.5 12.499994,12.499994 0 0 1 -12.50152,-12.49694 12.499994,12.499994 0 0 1 12.49541,-12.50305 12.499994,12.499994 0 0 1 12.50458,12.49388"
       transform="scale(1,-1)" />
    <path
       style="opacity:1;fill:#ffffff;fill-opacity:1;stroke:#000000;stroke-width:10;stroke-linecap:butt;stroke-linejoin:miter;stroke-miterlimit:4;stroke-dasharray:none;stroke-opacity:1"
       d="m 559.53198,681.39758 82.82107,-110.4281"
       id="path4771-3"
       inkscape:connector-curvature="0" />
    <g
       transform="matrix(0,-1,1,0,0,0)"
       style="font-style:normal;font-variant:normal;font-weight:normal;font-stretch:normal;font-size:80px;line-height:100%;font-family:'Times New Roman';-inkscape-font-specification:'Times New Roman, Normal';text-align:center;letter-spacing:0px;word-spacing:0px;writing-mode:lr-tb;text-anchor:middle;fill:#000000;fill-opacity:1;stroke:none;stroke-width:1px;stroke-linecap:butt;stroke-linejoin:miter;stroke-opacity:1"
       id="text4843">
      <path
         d="m -489.28656,371.18762 0,1.75781 q -3.67188,1.67969 -7.22656,4.53125 -3.55469,2.85157 -8.63282,8.63282 l -3.125,0 q 2.69532,-6.71875 7.57813,-12.14844 l -50.97656,0 q 4.88281,5.42969 7.57812,12.14844 l -3.125,0 q -5.07812,-5.78125 -8.63281,-8.63282 -3.55469,-2.85156 -7.22656,-4.53125 l 0,-1.75781 q 3.67187,-1.71875 7.22656,-4.53125 3.55469,-2.85156 8.63281,-8.67187 l 3.125,0 q -2.69531,6.71875 -7.57812,12.14843 l 50.97656,0 q -4.88281,-5.42968 -7.57813,-12.14843 l 3.125,0 q 5.07813,5.82031 8.63282,8.67187 3.55468,2.8125 7.22656,4.53125 z"
         style=""
         id="path4931" />
    </g>
    <g
       transform="matrix(0,-1,1,0,0,0)"
       style="font-style:normal;font-variant:normal;font-weight:normal;font-stretch:normal;font-size:80px;line-height:100%;font-family:'Times New Roman';-inkscape-font-specification:'Times New Roman, Normal';text-align:center;letter-spacing:0px;word-spacing:0px;writing-mode:lr-tb;text-anchor:middle;fill:#000000;fill-opacity:1;stroke:none;stroke-width:1px;stroke-linecap:butt;stroke-linejoin:miter;stroke-opacity:1"
       id="text4843-4">
      <path
         d="m -489.28656,123.15628 0,1.75781 q -3.67188,1.67969 -7.22656,4.53125 -3.55469,2.85157 -8.63282,8.63282 l -3.125,0 q 2.69532,-6.71875 7.57813,-12.14844 l -50.97656,0 q 4.88281,5.42969 7.57812,12.14844 l -3.125,0 q -5.07812,-5.78125 -8.63281,-8.63282 -3.55469,-2.85156 -7.22656,-4.53125 l 0,-1.75781 q 3.67187,-1.71875 7.22656,-4.53125 3.55469,-2.85156 8.63281,-8.67187 l 3.125,0 q -2.69531,6.71875 -7.57812,12.14843 l 50.97656,0 q -4.88281,-5.42968 -7.57813,-12.14843 l 3.125,0 q 5.07813,5.82031 8.63282,8.67187 3.55468,2.8125 7.22656,4.53125 z"
         style=""
         id="path4928" />
    </g>
    <g
       transform="matrix(0,-1,1,0,0,0)"
       style="font-style:normal;font-variant:normal;font-weight:normal;font-stretch:normal;font-size:80px;line-height:100%;font-family:'Times New Roman';-inkscape-font-specification:'Times New Roman, Normal';text-align:center;letter-spacing:0px;word-spacing:0px;writing-mode:lr-tb;text-anchor:middle;fill:#000000;fill-opacity:1;stroke:none;stroke-width:1px;stroke-linecap:butt;stroke-linejoin:miter;stroke-opacity:1"
       id="text4843-9">
      <path
         d="m -489.28656,619.21899 0,1.75782 q -3.67188,1.67968 -7.22656,4.53125 -3.55469,2.85156 -8.63282,8.63281 l -3.125,0 q 2.69532,-6.71875 7.57813,-12.14844 l -50.97656,0 q 4.88281,5.42969 7.57812,12.14844 l -3.125,0 q -5.07812,-5.78125 -8.63281,-8.63281 -3.55469,-2.85157 -7.22656,-4.53125 l 0,-1.75782 q 3.67187,-1.71875 7.22656,-4.53125 3.55469,-2.85156 8.63281,-8.67187 l 3.125,0 q -2.69531,6.71875 -7.57812,12.14844 l 50.97656,0 q -4.88281,-5.42969 -7.57813,-12.14844 l 3.125,0 q 5.07813,5.82031 8.63282,8.67187 3.55468,2.8125 7.22656,4.53125 z"
         style=""
         id="path4925" />
    </g>
  </g>
</svg>
